<svg width="24" height="24" viewBox="0 0 24 24" fill="none" xmlns="http://www.w3.org/2000/svg">
<g id="ant-design:youtube-outlined">
<path id="Vector" d="M22.5347 11.9359C22.5347 11.8855 22.5347 11.8283 22.5324 11.7619C22.5301 11.5764 22.5255 11.368 22.521 11.1458C22.5026 10.5069 22.4706 9.87026 22.4202 9.27026C22.3515 8.44354 22.2507 7.75423 22.1133 7.23667C21.9683 6.69655 21.6841 6.20396 21.2891 5.80811C20.894 5.41227 20.402 5.12704 19.8622 4.98094C19.2141 4.8069 17.9454 4.69926 16.1591 4.63285C15.3095 4.60079 14.4004 4.58018 13.4912 4.56873C13.1729 4.56415 12.8775 4.56186 12.6118 4.55957H11.9385C11.6729 4.56186 11.3775 4.56415 11.0591 4.56873C10.15 4.58018 9.24082 4.60079 8.3912 4.63285C6.60494 4.70155 5.33395 4.80919 4.68814 4.98094C4.14815 5.12668 3.65594 5.41179 3.26084 5.80769C2.86574 6.20359 2.58164 6.69638 2.437 7.23667C2.2973 7.75423 2.19883 8.44354 2.13013 9.27026C2.07975 9.87026 2.04769 10.5069 2.02937 11.1458C2.0225 11.368 2.02021 11.5764 2.01792 11.7619C2.01792 11.8283 2.01562 11.8855 2.01562 11.9359V12.0642C2.01562 12.1145 2.01562 12.1718 2.01792 12.2382C2.02021 12.4237 2.02479 12.6321 2.02937 12.8542C2.04769 13.4932 2.07975 14.1298 2.13013 14.7298C2.19883 15.5565 2.29959 16.2458 2.437 16.7634C2.73013 17.8603 3.5912 18.726 4.68814 19.0191C5.33395 19.1932 6.60494 19.3008 8.3912 19.3672C9.24082 19.3993 10.15 19.4199 11.0591 19.4313C11.3775 19.4359 11.6729 19.4382 11.9385 19.4405H12.6118C12.8775 19.4382 13.1729 19.4359 13.4912 19.4313C14.4004 19.4199 15.3095 19.3993 16.1591 19.3672C17.9454 19.2985 19.2164 19.1909 19.8622 19.0191C20.9591 18.726 21.8202 17.8626 22.1133 16.7634C22.253 16.2458 22.3515 15.5565 22.4202 14.7298C22.4706 14.1298 22.5026 13.4932 22.521 12.8542C22.5278 12.6321 22.5301 12.4237 22.5324 12.2382C22.5324 12.1718 22.5347 12.1145 22.5347 12.0642V11.9359ZM20.8859 12.055C20.8859 12.1031 20.8859 12.1558 20.8836 12.2176C20.8813 12.3962 20.8767 12.5932 20.8721 12.8061C20.8561 13.4153 20.824 14.0245 20.7759 14.5901C20.7141 15.3275 20.6271 15.9321 20.5194 16.3374C20.3775 16.8664 19.9607 17.2855 19.4339 17.4252C18.953 17.5535 17.7416 17.6565 16.095 17.7183C15.2614 17.7504 14.3637 17.771 13.4683 17.7825C13.1546 17.7871 12.8637 17.7893 12.6026 17.7893H11.9477L11.082 17.7825C10.1866 17.771 9.2912 17.7504 8.45532 17.7183C6.80875 17.6542 5.59501 17.5535 5.11639 17.4252C4.58967 17.2832 4.17288 16.8664 4.03089 16.3374C3.92326 15.9321 3.83624 15.3275 3.7744 14.5901C3.72631 14.0245 3.69654 13.4153 3.67822 12.8061C3.67135 12.5932 3.66906 12.3939 3.66677 12.2176C3.66677 12.1558 3.66448 12.1008 3.66448 12.055V11.9451C3.66448 11.897 3.66448 11.8443 3.66677 11.7825C3.66906 11.6038 3.67364 11.4069 3.67822 11.1939C3.69425 10.5848 3.72631 9.9756 3.7744 9.40995C3.83624 8.67255 3.92326 8.06797 4.03089 7.66262C4.17288 7.13362 4.58967 6.71453 5.11639 6.57484C5.5973 6.44659 6.80875 6.34354 8.45532 6.28171C9.28891 6.24965 10.1866 6.22904 11.082 6.21759C11.3958 6.21301 11.6866 6.21072 11.9477 6.21072H12.6026L13.4683 6.21759C14.3637 6.22904 15.2591 6.24965 16.095 6.28171C17.7416 6.34583 18.9553 6.44659 19.4339 6.57484C19.9607 6.71682 20.3775 7.13362 20.5194 7.66262C20.6271 8.06797 20.7141 8.67255 20.7759 9.40995C20.824 9.9756 20.8538 10.5848 20.8721 11.1939C20.879 11.4069 20.8813 11.6061 20.8836 11.7825C20.8836 11.8443 20.8859 11.8993 20.8859 11.9451V12.055ZM10.237 15.0687L15.55 11.9771L10.237 8.93133V15.0687Z" fill="#FAFAFE"/>
</g>
</svg>
