<svg width="24" height="24" viewBox="0 0 24 24" fill="none" xmlns="http://www.w3.org/2000/svg">
<g id="circum:linkedin">
<path id="Vector" d="M18.4396 3.05957H5.55957C4.8971 3.06142 4.26229 3.3254 3.79384 3.79384C3.3254 4.26229 3.06142 4.8971 3.05957 5.55957V18.4396C3.06142 19.102 3.3254 19.7369 3.79384 20.2053C4.26229 20.6737 4.8971 20.9377 5.55957 20.9396H18.4396C19.1026 20.9396 19.7385 20.6762 20.2073 20.2073C20.6762 19.7385 20.9396 19.1026 20.9396 18.4396V5.55957C20.9396 4.89653 20.6762 4.26064 20.2073 3.7918C19.7385 3.32296 19.1026 3.05957 18.4396 3.05957ZM19.9396 18.4396C19.9367 18.8365 19.7777 19.2164 19.497 19.497C19.2164 19.7777 18.8365 19.9367 18.4396 19.9396H5.55957C5.16264 19.9367 4.78278 19.7777 4.50209 19.497C4.22141 19.2164 4.06245 18.8365 4.05957 18.4396V5.55957C4.06245 5.16264 4.22141 4.78278 4.50209 4.50209C4.78278 4.22141 5.16264 4.06245 5.55957 4.05957H18.4396C18.8365 4.06245 19.2164 4.22141 19.497 4.50209C19.7777 4.78278 19.9367 5.16264 19.9396 5.55957V18.4396Z" fill="#FAFAFE"/>
<path id="Vector_2" d="M6.37598 10.748C6.37598 10.4828 6.48133 10.2285 6.66887 10.0409C6.85641 9.8534 7.11076 9.74805 7.37598 9.74805C7.64119 9.74805 7.89555 9.8534 8.08308 10.0409C8.27062 10.2285 8.37598 10.4828 8.37598 10.748V17.248C8.37598 17.5133 8.27062 17.7676 8.08308 17.9552C7.89555 18.1427 7.64119 18.248 7.37598 18.248C7.11076 18.248 6.85641 18.1427 6.66887 17.9552C6.48133 17.7676 6.37598 17.5133 6.37598 17.248V10.748Z" fill="#FAFAFE"/>
<path id="Vector_3" d="M7.37598 7.74414C7.92826 7.74414 8.37598 7.29643 8.37598 6.74414C8.37598 6.19186 7.92826 5.74414 7.37598 5.74414C6.82369 5.74414 6.37598 6.19186 6.37598 6.74414C6.37598 7.29643 6.82369 7.74414 7.37598 7.74414Z" fill="#FAFAFE"/>
<path id="Vector_4" d="M17.6196 13.3704V17.2504C17.6196 17.5156 17.5143 17.7699 17.3268 17.9575C17.1392 18.145 16.8849 18.2504 16.6196 18.2504C16.3544 18.2504 16.1001 18.145 15.9125 17.9575C15.725 17.7699 15.6196 17.5156 15.6196 17.2504V13.3704C15.6196 12.942 15.4495 12.5312 15.1466 12.2284C14.8438 11.9255 14.433 11.7554 14.0046 11.7554C13.5763 11.7554 13.1655 11.9255 12.8627 12.2284C12.5598 12.5312 12.3896 12.942 12.3896 13.3704V17.2504C12.3896 17.5156 12.2843 17.7699 12.0968 17.9575C11.9092 18.145 11.6549 18.2504 11.3896 18.2504C11.1244 18.2504 10.8701 18.145 10.6825 17.9575C10.495 17.7699 10.3896 17.5156 10.3896 17.2504V10.7504C10.3938 10.4864 10.5005 10.2345 10.6871 10.0478C10.8738 9.86116 11.1257 9.75448 11.3896 9.75035C11.559 9.74571 11.7265 9.78694 11.8744 9.86968C12.0222 9.95241 12.145 10.0736 12.2296 10.2204C12.7795 9.90839 13.4016 9.74631 14.0337 9.75035C14.6659 9.75439 15.2859 9.9244 15.8317 10.2434C16.3774 10.5623 16.8299 11.0191 17.1437 11.5678C17.4574 12.1166 17.6216 12.7382 17.6196 13.3704Z" fill="#FAFAFE"/>
</g>
</svg>
