<svg width="24" height="24" viewBox="0 0 24 24" fill="none" xmlns="http://www.w3.org/2000/svg">
<g id="ri:twitter-line">
<path id="Vector" d="M15.3503 5.55011C14.5903 5.54999 13.8605 5.84824 13.3182 6.38068C12.7758 6.91313 12.4642 7.63721 12.4503 8.39711L12.4223 9.97211C12.4206 10.0567 12.4011 10.1399 12.3651 10.2164C12.329 10.2929 12.2771 10.3609 12.2129 10.416C12.1487 10.471 12.0736 10.5119 11.9925 10.5359C11.9114 10.5599 11.8261 10.5664 11.7423 10.5551L10.1803 10.3431C8.12729 10.0631 6.15929 9.11711 4.27029 7.54411C3.67329 10.8541 4.84029 13.1471 7.65329 14.9161L9.40029 16.0141C9.48335 16.0662 9.55239 16.1378 9.60137 16.2228C9.65034 16.3077 9.67775 16.4033 9.6812 16.5013C9.68465 16.5993 9.66404 16.6966 9.62117 16.7848C9.57831 16.873 9.51448 16.9493 9.43529 17.0071L7.84329 18.1701C8.79029 18.2291 9.68929 18.1871 10.4353 18.0391C15.1533 17.0971 18.2903 13.5471 18.2903 7.69111C18.2903 7.21311 17.2773 5.55011 15.3503 5.55011ZM10.4503 8.36011C10.4677 7.39616 10.7692 6.45878 11.3168 5.66534C11.8645 4.87189 12.6341 4.25763 13.5292 3.89948C14.4243 3.54133 15.4052 3.45519 16.349 3.65186C17.2929 3.84853 18.1577 4.31926 18.8353 5.00511C19.5463 5.00011 20.1513 5.18011 21.5033 4.36011C21.1693 6.00011 21.0033 6.71211 20.2903 7.69111C20.2903 15.3331 15.5933 19.0491 10.8263 20.0001C7.55929 20.6521 2.80629 19.5811 1.44629 18.1591C2.13929 18.1051 4.95929 17.8021 6.58929 16.6091C5.20929 15.6991 -0.278711 12.4691 3.32829 3.78611C5.02129 5.76311 6.73829 7.10911 8.47829 7.82311C9.63529 8.29811 9.92029 8.28911 10.4513 8.36111" fill="#FAFAFE"/>
</g>
</svg>
