<svg width="184" height="116" viewBox="0 0 184 116" fill="none" xmlns="http://www.w3.org/2000/svg">
<rect width="77" height="77" transform="translate(53.5)" fill="#F6F4F5"/>
<path d="M122.078 44.5156V28.875L92 13.2344L61.9219 28.875L92 44.5156L107.641 37.2969V54.1406C107.641 58.9531 100.422 63.7656 92 63.7656C83.5781 63.7656 76.3594 58.9531 76.3594 54.1406V37.2969" stroke="#686FA9" stroke-width="7.21875" stroke-linecap="round" stroke-linejoin="round"/>
<path d="M7.86 108.14C6.56667 108.14 5.38667 107.84 4.32 107.24C3.25333 106.627 2.40667 105.78 1.78 104.7C1.16667 103.607 0.86 102.38 0.86 101.02C0.86 99.66 1.16667 98.44 1.78 97.36C2.40667 96.2667 3.25333 95.42 4.32 94.82C5.38667 94.2067 6.56667 93.9 7.86 93.9C9.16667 93.9 10.3533 94.2067 11.42 94.82C12.4867 95.42 13.3267 96.26 13.94 97.34C14.5533 98.42 14.86 99.6467 14.86 101.02C14.86 102.393 14.5533 103.62 13.94 104.7C13.3267 105.78 12.4867 106.627 11.42 107.24C10.3533 107.84 9.16667 108.14 7.86 108.14ZM7.86 106.56C8.83333 106.56 9.70667 106.333 10.48 105.88C11.2667 105.427 11.88 104.78 12.32 103.94C12.7733 103.1 13 102.127 13 101.02C13 99.9 12.7733 98.9267 12.32 98.1C11.88 97.26 11.2733 96.6133 10.5 96.16C9.72667 95.7067 8.84667 95.48 7.86 95.48C6.87333 95.48 5.99333 95.7067 5.22 96.16C4.44667 96.6133 3.83333 97.26 3.38 98.1C2.94 98.9267 2.72 99.9 2.72 101.02C2.72 102.127 2.94 103.1 3.38 103.94C3.83333 104.78 4.44667 105.427 5.22 105.88C6.00667 106.333 6.88667 106.56 7.86 106.56ZM21.3427 106.32L24.7427 97.04H26.6827L22.3827 108H20.2627L15.9627 97.04H17.9227L21.3427 106.32ZM38.4736 102.1C38.4736 102.447 38.4536 102.813 38.4136 103.2H29.6536C29.7203 104.28 30.0869 105.127 30.7536 105.74C31.4336 106.34 32.2536 106.64 33.2136 106.64C34.0003 106.64 34.6536 106.46 35.1736 106.1C35.7069 105.727 36.0803 105.233 36.2936 104.62H38.2536C37.9603 105.673 37.3736 106.533 36.4936 107.2C35.6136 107.853 34.5203 108.18 33.2136 108.18C32.1736 108.18 31.2403 107.947 30.4136 107.48C29.6003 107.013 28.9603 106.353 28.4936 105.5C28.0269 104.633 27.7936 103.633 27.7936 102.5C27.7936 101.367 28.0203 100.373 28.4736 99.52C28.9269 98.6667 29.5603 98.0133 30.3736 97.56C31.2003 97.0933 32.1469 96.86 33.2136 96.86C34.2536 96.86 35.1736 97.0867 35.9736 97.54C36.7736 97.9933 37.3869 98.62 37.8136 99.42C38.2536 100.207 38.4736 101.1 38.4736 102.1ZM36.5936 101.72C36.5936 101.027 36.4403 100.433 36.1336 99.94C35.8269 99.4333 35.4069 99.0533 34.8736 98.8C34.3536 98.5333 33.7736 98.4 33.1336 98.4C32.2136 98.4 31.4269 98.6933 30.7736 99.28C30.1336 99.8667 29.7669 100.68 29.6736 101.72H36.5936ZM42.6959 98.82C43.0159 98.1933 43.4693 97.7067 44.0559 97.36C44.6559 97.0133 45.3826 96.84 46.2359 96.84V98.72H45.7559C43.7159 98.72 42.6959 99.8267 42.6959 102.04V108H40.8759V97.04H42.6959V98.82ZM55.7089 104.12C55.8422 104.88 56.1489 105.467 56.6289 105.88C57.1222 106.293 57.7822 106.5 58.6089 106.5C59.7156 106.5 60.5289 106.067 61.0489 105.2C61.5822 104.333 61.8356 102.873 61.8089 100.82C61.5289 101.42 61.0622 101.893 60.4089 102.24C59.7556 102.573 59.0289 102.74 58.2289 102.74C57.3356 102.74 56.5356 102.56 55.8289 102.2C55.1356 101.827 54.5889 101.287 54.1889 100.58C53.7889 99.8733 53.5889 99.02 53.5889 98.02C53.5889 96.5933 54.0022 95.4467 54.8289 94.58C55.6556 93.7 56.8289 93.26 58.3489 93.26C60.2156 93.26 61.5222 93.8667 62.2689 95.08C63.0289 96.2933 63.4089 98.1 63.4089 100.5C63.4089 102.18 63.2556 103.567 62.9489 104.66C62.6556 105.753 62.1489 106.587 61.4289 107.16C60.7222 107.733 59.7489 108.02 58.5089 108.02C57.1489 108.02 56.0889 107.653 55.3289 106.92C54.5689 106.187 54.1356 105.253 54.0289 104.12H55.7089ZM58.5289 101.2C59.4222 101.2 60.1556 100.927 60.7289 100.38C61.3022 99.82 61.5889 99.0667 61.5889 98.12C61.5889 97.12 61.3089 96.3133 60.7489 95.7C60.1889 95.0867 59.4022 94.78 58.3889 94.78C57.4556 94.78 56.7089 95.0733 56.1489 95.66C55.6022 96.2467 55.3289 97.02 55.3289 97.98C55.3289 98.9533 55.6022 99.7333 56.1489 100.32C56.6956 100.907 57.4889 101.2 58.5289 101.2ZM65.9666 100.62C65.9666 98.3267 66.3399 96.54 67.0866 95.26C67.8332 93.9667 69.1399 93.32 71.0066 93.32C72.8599 93.32 74.1599 93.9667 74.9066 95.26C75.6532 96.54 76.0266 98.3267 76.0266 100.62C76.0266 102.953 75.6532 104.767 74.9066 106.06C74.1599 107.353 72.8599 108 71.0066 108C69.1399 108 67.8332 107.353 67.0866 106.06C66.3399 104.767 65.9666 102.953 65.9666 100.62ZM74.2266 100.62C74.2266 99.46 74.1466 98.48 73.9866 97.68C73.8399 96.8667 73.5266 96.2133 73.0466 95.72C72.5799 95.2267 71.8999 94.98 71.0066 94.98C70.0999 94.98 69.4066 95.2267 68.9266 95.72C68.4599 96.2133 68.1466 96.8667 67.9866 97.68C67.8399 98.48 67.7666 99.46 67.7666 100.62C67.7666 101.82 67.8399 102.827 67.9866 103.64C68.1466 104.453 68.4599 105.107 68.9266 105.6C69.4066 106.093 70.0999 106.34 71.0066 106.34C71.8999 106.34 72.5799 106.093 73.0466 105.6C73.5266 105.107 73.8399 104.453 73.9866 103.64C74.1466 102.827 74.2266 101.82 74.2266 100.62ZM78.5252 100.62C78.5252 98.3267 78.8985 96.54 79.6452 95.26C80.3918 93.9667 81.6985 93.32 83.5652 93.32C85.4185 93.32 86.7185 93.9667 87.4652 95.26C88.2118 96.54 88.5852 98.3267 88.5852 100.62C88.5852 102.953 88.2118 104.767 87.4652 106.06C86.7185 107.353 85.4185 108 83.5652 108C81.6985 108 80.3918 107.353 79.6452 106.06C78.8985 104.767 78.5252 102.953 78.5252 100.62ZM86.7852 100.62C86.7852 99.46 86.7052 98.48 86.5452 97.68C86.3985 96.8667 86.0852 96.2133 85.6052 95.72C85.1385 95.2267 84.4585 94.98 83.5652 94.98C82.6585 94.98 81.9652 95.2267 81.4852 95.72C81.0185 96.2133 80.7052 96.8667 80.5452 97.68C80.3985 98.48 80.3252 99.46 80.3252 100.62C80.3252 101.82 80.3985 102.827 80.5452 103.64C80.7052 104.453 81.0185 105.107 81.4852 105.6C81.9652 106.093 82.6585 106.34 83.5652 106.34C84.4585 106.34 85.1385 106.093 85.6052 105.6C86.0852 105.107 86.3985 104.453 86.5452 103.64C86.7052 102.827 86.7852 101.82 86.7852 100.62ZM101.136 108.14C100.216 108.14 99.3891 107.98 98.6558 107.66C97.9358 107.327 97.3691 106.873 96.9558 106.3C96.5424 105.713 96.3291 105.04 96.3158 104.28H98.2558C98.3224 104.933 98.5891 105.487 99.0558 105.94C99.5358 106.38 100.229 106.6 101.136 106.6C102.002 106.6 102.682 106.387 103.176 105.96C103.682 105.52 103.936 104.96 103.936 104.28C103.936 103.747 103.789 103.313 103.496 102.98C103.202 102.647 102.836 102.393 102.396 102.22C101.956 102.047 101.362 101.86 100.616 101.66C99.6958 101.42 98.9558 101.18 98.3958 100.94C97.8491 100.7 97.3758 100.327 96.9758 99.82C96.5891 99.3 96.3958 98.6067 96.3958 97.74C96.3958 96.98 96.5891 96.3067 96.9758 95.72C97.3624 95.1333 97.9024 94.68 98.5958 94.36C99.3024 94.04 100.109 93.88 101.016 93.88C102.322 93.88 103.389 94.2067 104.216 94.86C105.056 95.5133 105.529 96.38 105.636 97.46H103.636C103.569 96.9267 103.289 96.46 102.796 96.06C102.302 95.6467 101.649 95.44 100.836 95.44C100.076 95.44 99.4558 95.64 98.9758 96.04C98.4958 96.4267 98.2558 96.9733 98.2558 97.68C98.2558 98.1867 98.3958 98.6 98.6758 98.92C98.9691 99.24 99.3224 99.4867 99.7358 99.66C100.162 99.82 100.756 100.007 101.516 100.22C102.436 100.473 103.176 100.727 103.736 100.98C104.296 101.22 104.776 101.6 105.176 102.12C105.576 102.627 105.776 103.32 105.776 104.2C105.776 104.88 105.596 105.52 105.236 106.12C104.876 106.72 104.342 107.207 103.636 107.58C102.929 107.953 102.096 108.14 101.136 108.14ZM110.674 98.54V105C110.674 105.533 110.787 105.913 111.014 106.14C111.241 106.353 111.634 106.46 112.194 106.46H113.534V108H111.894C110.881 108 110.121 107.767 109.614 107.3C109.107 106.833 108.854 106.067 108.854 105V98.54H107.434V97.04H108.854V94.28H110.674V97.04H113.534V98.54H110.674ZM125.459 97.04V108H123.639V106.38C123.293 106.94 122.806 107.38 122.179 107.7C121.566 108.007 120.886 108.16 120.139 108.16C119.286 108.16 118.519 107.987 117.839 107.64C117.159 107.28 116.619 106.747 116.219 106.04C115.833 105.333 115.639 104.473 115.639 103.46V97.04H117.439V103.22C117.439 104.3 117.713 105.133 118.259 105.72C118.806 106.293 119.553 106.58 120.499 106.58C121.473 106.58 122.239 106.28 122.799 105.68C123.359 105.08 123.639 104.207 123.639 103.06V97.04H125.459ZM127.852 102.48C127.852 101.36 128.079 100.38 128.532 99.54C128.986 98.6867 129.606 98.0267 130.392 97.56C131.192 97.0933 132.086 96.86 133.072 96.86C133.926 96.86 134.719 97.06 135.452 97.46C136.186 97.8467 136.746 98.36 137.132 99V93.2H138.972V108H137.132V105.94C136.772 106.593 136.239 107.133 135.532 107.56C134.826 107.973 133.999 108.18 133.052 108.18C132.079 108.18 131.192 107.94 130.392 107.46C129.606 106.98 128.986 106.307 128.532 105.44C128.079 104.573 127.852 103.587 127.852 102.48ZM137.132 102.5C137.132 101.673 136.966 100.953 136.632 100.34C136.299 99.7267 135.846 99.26 135.272 98.94C134.712 98.6067 134.092 98.44 133.412 98.44C132.732 98.44 132.112 98.6 131.552 98.92C130.992 99.24 130.546 99.7067 130.212 100.32C129.879 100.933 129.712 101.653 129.712 102.48C129.712 103.32 129.879 104.053 130.212 104.68C130.546 105.293 130.992 105.767 131.552 106.1C132.112 106.42 132.732 106.58 133.412 106.58C134.092 106.58 134.712 106.42 135.272 106.1C135.846 105.767 136.299 105.293 136.632 104.68C136.966 104.053 137.132 103.327 137.132 102.5ZM152.048 102.1C152.048 102.447 152.028 102.813 151.988 103.2H143.228C143.294 104.28 143.661 105.127 144.328 105.74C145.008 106.34 145.828 106.64 146.788 106.64C147.574 106.64 148.228 106.46 148.748 106.1C149.281 105.727 149.654 105.233 149.868 104.62H151.828C151.534 105.673 150.948 106.533 150.068 107.2C149.188 107.853 148.094 108.18 146.788 108.18C145.748 108.18 144.814 107.947 143.988 107.48C143.174 107.013 142.534 106.353 142.068 105.5C141.601 104.633 141.368 103.633 141.368 102.5C141.368 101.367 141.594 100.373 142.048 99.52C142.501 98.6667 143.134 98.0133 143.948 97.56C144.774 97.0933 145.721 96.86 146.788 96.86C147.828 96.86 148.748 97.0867 149.548 97.54C150.348 97.9933 150.961 98.62 151.388 99.42C151.828 100.207 152.048 101.1 152.048 102.1ZM150.168 101.72C150.168 101.027 150.014 100.433 149.708 99.94C149.401 99.4333 148.981 99.0533 148.448 98.8C147.928 98.5333 147.348 98.4 146.708 98.4C145.788 98.4 145.001 98.6933 144.348 99.28C143.708 99.8667 143.341 100.68 143.248 101.72H150.168ZM159.79 96.84C161.123 96.84 162.203 97.2467 163.03 98.06C163.857 98.86 164.27 100.02 164.27 101.54V108H162.47V101.8C162.47 100.707 162.197 99.8733 161.65 99.3C161.103 98.7133 160.357 98.42 159.41 98.42C158.45 98.42 157.683 98.72 157.11 99.32C156.55 99.92 156.27 100.793 156.27 101.94V108H154.45V97.04H156.27V98.6C156.63 98.04 157.117 97.6067 157.73 97.3C158.357 96.9933 159.043 96.84 159.79 96.84ZM169.463 98.54V105C169.463 105.533 169.576 105.913 169.803 106.14C170.03 106.353 170.423 106.46 170.983 106.46H172.323V108H170.683C169.67 108 168.91 107.767 168.403 107.3C167.896 106.833 167.643 106.067 167.643 105V98.54H166.223V97.04H167.643V94.28H169.463V97.04H172.323V98.54H169.463ZM178.408 108.18C177.568 108.18 176.815 108.04 176.148 107.76C175.482 107.467 174.955 107.067 174.568 106.56C174.182 106.04 173.968 105.447 173.928 104.78H175.808C175.862 105.327 176.115 105.773 176.568 106.12C177.035 106.467 177.642 106.64 178.388 106.64C179.082 106.64 179.628 106.487 180.028 106.18C180.428 105.873 180.628 105.487 180.628 105.02C180.628 104.54 180.415 104.187 179.988 103.96C179.562 103.72 178.902 103.487 178.008 103.26C177.195 103.047 176.528 102.833 176.008 102.62C175.502 102.393 175.062 102.067 174.688 101.64C174.328 101.2 174.148 100.627 174.148 99.92C174.148 99.36 174.315 98.8467 174.648 98.38C174.982 97.9133 175.455 97.5467 176.068 97.28C176.682 97 177.382 96.86 178.168 96.86C179.382 96.86 180.362 97.1667 181.108 97.78C181.855 98.3933 182.255 99.2333 182.308 100.3H180.488C180.448 99.7267 180.215 99.2667 179.788 98.92C179.375 98.5733 178.815 98.4 178.108 98.4C177.455 98.4 176.935 98.54 176.548 98.82C176.162 99.1 175.968 99.4667 175.968 99.92C175.968 100.28 176.082 100.58 176.308 100.82C176.548 101.047 176.842 101.233 177.188 101.38C177.548 101.513 178.042 101.667 178.668 101.84C179.455 102.053 180.095 102.267 180.588 102.48C181.082 102.68 181.502 102.987 181.848 103.4C182.208 103.813 182.395 104.353 182.408 105.02C182.408 105.62 182.242 106.16 181.908 106.64C181.575 107.12 181.102 107.5 180.488 107.78C179.888 108.047 179.195 108.18 178.408 108.18Z" fill="#686FA9"/>
</svg>
