<svg width="67" height="47" viewBox="0 0 67 47" fill="none" xmlns="http://www.w3.org/2000/svg">
<path d="M44.3333 16.2775L60.7747 8.05856C61.3251 7.78352 61.9367 7.65369 62.5514 7.68137C63.166 7.70905 63.7635 7.89334 64.2869 8.21675C64.8104 8.54016 65.2425 8.99195 65.5423 9.52926C65.8421 10.0666 65.9997 10.6716 66 11.2869V35.7125C65.9997 36.3278 65.8421 36.9328 65.5423 37.4701C65.2425 38.0074 64.8104 38.4592 64.2869 38.7826C63.7635 39.106 63.166 39.2903 62.5514 39.318C61.9367 39.3457 61.3251 39.2158 60.7747 38.9408L44.3333 30.7219M8.22222 45.1663H37.1111C39.0266 45.1663 40.8636 44.4054 42.218 43.051C43.5724 41.6966 44.3333 39.8596 44.3333 37.9441V9.05523C44.3333 7.13978 43.5724 5.30278 42.218 3.94835C40.8636 2.59392 39.0266 1.83301 37.1111 1.83301H8.22222C6.30677 1.83301 4.46977 2.59392 3.11534 3.94835C1.76091 5.30278 1 7.13978 1 9.05523V37.9441C1 39.8596 1.76091 41.6966 3.11534 43.051C4.46977 44.4054 6.30677 45.1663 8.22222 45.1663Z" stroke="#FFFDFD" stroke-width="2" stroke-linecap="round" stroke-linejoin="round"/>
</svg>
