<svg width="49" height="48" viewBox="0 0 49 48" fill="none" xmlns="http://www.w3.org/2000/svg">
<g clip-path="url(#clip0_300_3906)">
<path d="M25.7 9.39851C25.5441 9.4002 25.3894 9.37116 25.2447 9.31306C25.1 9.25495 24.9682 9.16891 24.8568 9.05986C24.7453 8.9508 24.6565 8.82087 24.5952 8.67747C24.534 8.53407 24.5017 8.38002 24.5 8.22411C24.5 3.68011 28.2632 0.000108636 32.8968 0.000108636C33.0528 -0.00200497 33.2077 0.0267419 33.3526 0.0846964C33.4975 0.142651 33.6295 0.22867 33.741 0.337808C33.8525 0.446946 33.9413 0.577051 34.0024 0.720642C34.0635 0.864233 34.0955 1.01848 34.0968 1.17451C34.0968 5.71851 30.3368 9.39851 25.7 9.39851Z" fill="black"/>
<path d="M25.6998 9.39851C25.5439 9.4002 25.3892 9.37116 25.2445 9.31306C25.0998 9.25495 24.968 9.16891 24.8566 9.05986C24.7451 8.9508 24.6563 8.82087 24.5951 8.67747C24.5338 8.53407 24.5015 8.38002 24.4998 8.22411C24.4998 3.68011 28.263 0.000108636 32.8966 0.000108636C33.0526 -0.00200497 33.2075 0.0267419 33.3524 0.0846964C33.4973 0.142651 33.6293 0.22867 33.7408 0.337808C33.8523 0.446946 33.9411 0.577051 34.0022 0.720642C34.0633 0.864233 34.0954 1.01848 34.0966 1.17451C34.0966 5.71851 30.3366 9.39851 25.6998 9.39851ZM43.2198 34.1377C43.6838 34.4769 43.8342 35.0977 43.5718 35.6033C39.3478 43.8785 35.9782 48.0001 32.8998 48.0001C31.4662 48.0001 30.0582 47.5457 28.6854 46.6625C27.7001 46.0299 26.5591 45.682 25.3885 45.6571C24.2178 45.6323 23.0631 45.9315 22.0518 46.5217C20.3878 47.4977 18.8038 48.0001 17.2998 48.0001C12.7718 48.0001 5.2998 34.3457 5.2998 26.8545C5.2998 18.8545 9.5846 12.7553 16.0998 12.7553C19.1654 12.7553 21.8118 13.1969 24.0358 14.0961C24.9766 14.4737 26.0422 14.4481 26.9606 14.0161C28.7654 13.1649 31.1462 12.7553 34.0966 12.7553C37.703 12.7553 40.8486 14.5153 43.4598 17.9233C43.5543 18.0462 43.6231 18.1868 43.6622 18.3368C43.7013 18.4868 43.71 18.6431 43.6876 18.7965C43.6652 18.9498 43.6123 19.0972 43.5319 19.2297C43.4516 19.3623 43.3454 19.4773 43.2198 19.5681C40.3046 21.7121 38.8998 24.1153 38.8998 26.8545C38.8998 29.5905 40.3046 31.9969 43.2198 34.1377Z" fill="black"/>
<path d="M43.2198 34.1373C43.6838 34.4765 43.8342 35.0973 43.5718 35.6029C39.3478 43.8781 35.9782 47.9997 32.8998 47.9997C31.4662 47.9997 30.0582 47.5453 28.6854 46.6621C27.7001 46.0295 26.5591 45.6815 25.3885 45.6567C24.2178 45.6319 23.0631 45.9311 22.0518 46.5213C20.3878 47.4973 18.8038 47.9997 17.2998 47.9997C12.7718 47.9997 5.2998 34.3453 5.2998 26.8541C5.2998 18.8541 9.5846 12.7549 16.0998 12.7549C19.1654 12.7549 21.8118 13.1965 24.0358 14.0957C24.9766 14.4733 26.0422 14.4477 26.9606 14.0157C28.7654 13.1645 31.1462 12.7549 34.0966 12.7549C37.703 12.7549 40.8486 14.5149 43.4598 17.9229C43.5543 18.0458 43.6231 18.1864 43.6622 18.3364C43.7013 18.4863 43.71 18.6427 43.6876 18.796C43.6652 18.9494 43.6123 19.0967 43.5319 19.2293C43.4516 19.3618 43.3454 19.4769 43.2198 19.5677C40.3046 21.7117 38.8998 24.1149 38.8998 26.8541C38.8998 29.5901 40.3046 31.9965 43.2198 34.1373Z" fill="black"/>
</g>
<defs>
<clipPath id="clip0_300_3906">
<rect width="48" height="48" fill="white" transform="translate(0.5)"/>
</clipPath>
</defs>
</svg>
