<svg width="884" height="165" viewBox="0 0 884 165" fill="none" xmlns="http://www.w3.org/2000/svg">
<g filter="url(#filter0_d_2_3206)">
<rect width="876" height="157" fill="#FAFAFE"/>
<path fill-rule="evenodd" clip-rule="evenodd" d="M108.75 87.9803L111.064 85.3733C113.689 82.3667 116.05 79.514 118.151 76.8007L119.886 74.5127C127.127 64.7557 130.75 57.0117 130.75 51.288C130.75 39.0707 120.901 29.167 108.75 29.167C96.5987 29.167 86.75 39.0707 86.75 51.288C86.75 57.0117 90.3727 64.7557 97.6143 74.5127L99.3487 76.8007C102.346 80.6411 105.482 84.3677 108.75 87.9803Z" stroke="#686FA9" stroke-width="3.66667" stroke-linecap="round" stroke-linejoin="round"/>
<path d="M108.75 60.3333C113.812 60.3333 117.916 56.2293 117.916 51.1667C117.916 46.1041 113.812 42 108.75 42C103.687 42 99.583 46.1041 99.583 51.1667C99.583 56.2293 103.687 60.3333 108.75 60.3333Z" stroke="#686FA9" stroke-width="3.66667" stroke-linecap="round" stroke-linejoin="round"/>
<path d="M34.43 114.16V128H32.61V117.68L28.01 128H26.73L22.11 117.66V128H20.29V114.16H22.25L27.37 125.6L32.49 114.16H34.43ZM47.2366 117.04V128H45.4166V126.38C45.0699 126.94 44.5832 127.38 43.9566 127.7C43.3432 128.007 42.6632 128.16 41.9166 128.16C41.0632 128.16 40.2966 127.987 39.6166 127.64C38.9366 127.28 38.3966 126.747 37.9966 126.04C37.6099 125.333 37.4166 124.473 37.4166 123.46V117.04H39.2166V123.22C39.2166 124.3 39.4899 125.133 40.0366 125.72C40.5832 126.293 41.3299 126.58 42.2766 126.58C43.2499 126.58 44.0166 126.28 44.5766 125.68C45.1366 125.08 45.4166 124.207 45.4166 123.06V117.04H47.2366ZM52.1295 113.2V128H50.3095V113.2H52.1295ZM57.4514 118.54V125C57.4514 125.533 57.5647 125.913 57.7914 126.14C58.0181 126.353 58.4114 126.46 58.9714 126.46H60.3114V128H58.6714C57.6581 128 56.8981 127.767 56.3914 127.3C55.8847 126.833 55.6314 126.067 55.6314 125V118.54H54.2114V117.04H55.6314V114.28H57.4514V117.04H60.3114V118.54H57.4514ZM63.4566 115.26C63.1099 115.26 62.8166 115.14 62.5766 114.9C62.3366 114.66 62.2166 114.367 62.2166 114.02C62.2166 113.673 62.3366 113.38 62.5766 113.14C62.8166 112.9 63.1099 112.78 63.4566 112.78C63.7899 112.78 64.0699 112.9 64.2966 113.14C64.5366 113.38 64.6566 113.673 64.6566 114.02C64.6566 114.367 64.5366 114.66 64.2966 114.9C64.0699 115.14 63.7899 115.26 63.4566 115.26ZM64.3366 117.04V128H62.5166V117.04H64.3366ZM69.2584 119.06C69.6184 118.433 70.1518 117.913 70.8584 117.5C71.5784 117.073 72.4118 116.86 73.3584 116.86C74.3318 116.86 75.2118 117.093 75.9984 117.56C76.7984 118.027 77.4251 118.687 77.8784 119.54C78.3318 120.38 78.5584 121.36 78.5584 122.48C78.5584 123.587 78.3318 124.573 77.8784 125.44C77.4251 126.307 76.7984 126.98 75.9984 127.46C75.2118 127.94 74.3318 128.18 73.3584 128.18C72.4251 128.18 71.5984 127.973 70.8784 127.56C70.1718 127.133 69.6318 126.607 69.2584 125.98V133.2H67.4384V117.04H69.2584V119.06ZM76.6984 122.48C76.6984 121.653 76.5318 120.933 76.1984 120.32C75.8651 119.707 75.4118 119.24 74.8384 118.92C74.2784 118.6 73.6584 118.44 72.9784 118.44C72.3118 118.44 71.6918 118.607 71.1184 118.94C70.5584 119.26 70.1051 119.733 69.7584 120.36C69.4251 120.973 69.2584 121.687 69.2584 122.5C69.2584 123.327 69.4251 124.053 69.7584 124.68C70.1051 125.293 70.5584 125.767 71.1184 126.1C71.6918 126.42 72.3118 126.58 72.9784 126.58C73.6584 126.58 74.2784 126.42 74.8384 126.1C75.4118 125.767 75.8651 125.293 76.1984 124.68C76.5318 124.053 76.6984 123.32 76.6984 122.48ZM82.7741 113.2V128H80.9541V113.2H82.7741ZM95.8759 122.1C95.8759 122.447 95.8559 122.813 95.8159 123.2H87.0559C87.1226 124.28 87.4893 125.127 88.1559 125.74C88.8359 126.34 89.6559 126.64 90.6159 126.64C91.4026 126.64 92.0559 126.46 92.5759 126.1C93.1093 125.727 93.4826 125.233 93.6959 124.62H95.6559C95.3626 125.673 94.7759 126.533 93.8959 127.2C93.0159 127.853 91.9226 128.18 90.6159 128.18C89.5759 128.18 88.6426 127.947 87.8159 127.48C87.0026 127.013 86.3626 126.353 85.8959 125.5C85.4293 124.633 85.1959 123.633 85.1959 122.5C85.1959 121.367 85.4226 120.373 85.8759 119.52C86.3293 118.667 86.9626 118.013 87.7759 117.56C88.6026 117.093 89.5493 116.86 90.6159 116.86C91.6559 116.86 92.5759 117.087 93.3759 117.54C94.1759 117.993 94.7893 118.62 95.2159 119.42C95.6559 120.207 95.8759 121.1 95.8759 122.1ZM93.9959 121.72C93.9959 121.027 93.8426 120.433 93.5359 119.94C93.2293 119.433 92.8093 119.053 92.2759 118.8C91.7559 118.533 91.1759 118.4 90.5359 118.4C89.6159 118.4 88.8293 118.693 88.1759 119.28C87.5359 119.867 87.1693 120.68 87.0759 121.72H93.9959ZM102.93 121.02C102.93 119.66 103.237 118.44 103.85 117.36C104.464 116.267 105.297 115.413 106.35 114.8C107.417 114.187 108.597 113.88 109.89 113.88C111.41 113.88 112.737 114.247 113.87 114.98C115.004 115.713 115.83 116.753 116.35 118.1H114.17C113.784 117.26 113.224 116.613 112.49 116.16C111.77 115.707 110.904 115.48 109.89 115.48C108.917 115.48 108.044 115.707 107.27 116.16C106.497 116.613 105.89 117.26 105.45 118.1C105.01 118.927 104.79 119.9 104.79 121.02C104.79 122.127 105.01 123.1 105.45 123.94C105.89 124.767 106.497 125.407 107.27 125.86C108.044 126.313 108.917 126.54 109.89 126.54C110.904 126.54 111.77 126.32 112.49 125.88C113.224 125.427 113.784 124.78 114.17 123.94H116.35C115.83 125.273 115.004 126.307 113.87 127.04C112.737 127.76 111.41 128.12 109.89 128.12C108.597 128.12 107.417 127.82 106.35 127.22C105.297 126.607 104.464 125.76 103.85 124.68C103.237 123.6 102.93 122.38 102.93 121.02ZM123.84 128.18C122.813 128.18 121.88 127.947 121.04 127.48C120.213 127.013 119.56 126.353 119.08 125.5C118.613 124.633 118.38 123.633 118.38 122.5C118.38 121.38 118.62 120.393 119.1 119.54C119.593 118.673 120.26 118.013 121.1 117.56C121.94 117.093 122.88 116.86 123.92 116.86C124.96 116.86 125.9 117.093 126.74 117.56C127.58 118.013 128.24 118.667 128.72 119.52C129.213 120.373 129.46 121.367 129.46 122.5C129.46 123.633 129.206 124.633 128.7 125.5C128.206 126.353 127.533 127.013 126.68 127.48C125.826 127.947 124.88 128.18 123.84 128.18ZM123.84 126.58C124.493 126.58 125.106 126.427 125.68 126.12C126.253 125.813 126.713 125.353 127.06 124.74C127.42 124.127 127.6 123.38 127.6 122.5C127.6 121.62 127.426 120.873 127.08 120.26C126.733 119.647 126.28 119.193 125.72 118.9C125.16 118.593 124.553 118.44 123.9 118.44C123.233 118.44 122.62 118.593 122.06 118.9C121.513 119.193 121.073 119.647 120.74 120.26C120.406 120.873 120.24 121.62 120.24 122.5C120.24 123.393 120.4 124.147 120.72 124.76C121.053 125.373 121.493 125.833 122.04 126.14C122.586 126.433 123.186 126.58 123.84 126.58ZM141.573 117.04V128H139.753V126.38C139.406 126.94 138.919 127.38 138.293 127.7C137.679 128.007 136.999 128.16 136.253 128.16C135.399 128.16 134.633 127.987 133.953 127.64C133.273 127.28 132.733 126.747 132.333 126.04C131.946 125.333 131.753 124.473 131.753 123.46V117.04H133.553V123.22C133.553 124.3 133.826 125.133 134.373 125.72C134.919 126.293 135.666 126.58 136.613 126.58C137.586 126.58 138.353 126.28 138.913 125.68C139.473 125.08 139.753 124.207 139.753 123.06V117.04H141.573ZM149.985 116.84C151.319 116.84 152.399 117.247 153.225 118.06C154.052 118.86 154.465 120.02 154.465 121.54V128H152.665V121.8C152.665 120.707 152.392 119.873 151.845 119.3C151.299 118.713 150.552 118.42 149.605 118.42C148.645 118.42 147.879 118.72 147.305 119.32C146.745 119.92 146.465 120.793 146.465 121.94V128H144.645V117.04H146.465V118.6C146.825 118.04 147.312 117.607 147.925 117.3C148.552 116.993 149.239 116.84 149.985 116.84ZM159.658 118.54V125C159.658 125.533 159.772 125.913 159.998 126.14C160.225 126.353 160.618 126.46 161.178 126.46H162.518V128H160.878C159.865 128 159.105 127.767 158.598 127.3C158.092 126.833 157.838 126.067 157.838 125V118.54H156.418V117.04H157.838V114.28H159.658V117.04H162.518V118.54H159.658ZM166.544 118.82C166.864 118.193 167.317 117.707 167.904 117.36C168.504 117.013 169.23 116.84 170.084 116.84V118.72H169.604C167.564 118.72 166.544 119.827 166.544 122.04V128H164.724V117.04H166.544V118.82ZM173.125 115.26C172.778 115.26 172.485 115.14 172.245 114.9C172.005 114.66 171.885 114.367 171.885 114.02C171.885 113.673 172.005 113.38 172.245 113.14C172.485 112.9 172.778 112.78 173.125 112.78C173.458 112.78 173.738 112.9 173.965 113.14C174.205 113.38 174.325 113.673 174.325 114.02C174.325 114.367 174.205 114.66 173.965 114.9C173.738 115.14 173.458 115.26 173.125 115.26ZM174.005 117.04V128H172.185V117.04H174.005ZM187.106 122.1C187.106 122.447 187.086 122.813 187.046 123.2H178.286C178.353 124.28 178.72 125.127 179.386 125.74C180.066 126.34 180.886 126.64 181.846 126.64C182.633 126.64 183.286 126.46 183.806 126.1C184.34 125.727 184.713 125.233 184.926 124.62H186.886C186.593 125.673 186.006 126.533 185.126 127.2C184.246 127.853 183.153 128.18 181.846 128.18C180.806 128.18 179.873 127.947 179.046 127.48C178.233 127.013 177.593 126.353 177.126 125.5C176.66 124.633 176.426 123.633 176.426 122.5C176.426 121.367 176.653 120.373 177.106 119.52C177.56 118.667 178.193 118.013 179.006 117.56C179.833 117.093 180.78 116.86 181.846 116.86C182.886 116.86 183.806 117.087 184.606 117.54C185.406 117.993 186.02 118.62 186.446 119.42C186.886 120.207 187.106 121.1 187.106 122.1ZM185.226 121.72C185.226 121.027 185.073 120.433 184.766 119.94C184.46 119.433 184.04 119.053 183.506 118.8C182.986 118.533 182.406 118.4 181.766 118.4C180.846 118.4 180.06 118.693 179.406 119.28C178.766 119.867 178.4 120.68 178.306 121.72H185.226ZM193.389 128.18C192.549 128.18 191.795 128.04 191.129 127.76C190.462 127.467 189.935 127.067 189.549 126.56C189.162 126.04 188.949 125.447 188.909 124.78H190.789C190.842 125.327 191.095 125.773 191.549 126.12C192.015 126.467 192.622 126.64 193.369 126.64C194.062 126.64 194.609 126.487 195.009 126.18C195.409 125.873 195.609 125.487 195.609 125.02C195.609 124.54 195.395 124.187 194.969 123.96C194.542 123.72 193.882 123.487 192.989 123.26C192.175 123.047 191.509 122.833 190.989 122.62C190.482 122.393 190.042 122.067 189.669 121.64C189.309 121.2 189.129 120.627 189.129 119.92C189.129 119.36 189.295 118.847 189.629 118.38C189.962 117.913 190.435 117.547 191.049 117.28C191.662 117 192.362 116.86 193.149 116.86C194.362 116.86 195.342 117.167 196.089 117.78C196.835 118.393 197.235 119.233 197.289 120.3H195.469C195.429 119.727 195.195 119.267 194.769 118.92C194.355 118.573 193.795 118.4 193.089 118.4C192.435 118.4 191.915 118.54 191.529 118.82C191.142 119.1 190.949 119.467 190.949 119.92C190.949 120.28 191.062 120.58 191.289 120.82C191.529 121.047 191.822 121.233 192.169 121.38C192.529 121.513 193.022 121.667 193.649 121.84C194.435 122.053 195.075 122.267 195.569 122.48C196.062 122.68 196.482 122.987 196.829 123.4C197.189 123.813 197.375 124.353 197.389 125.02C197.389 125.62 197.222 126.16 196.889 126.64C196.555 127.12 196.082 127.5 195.469 127.78C194.869 128.047 194.175 128.18 193.389 128.18Z" fill="#686FA9"/>
<g clip-path="url(#clip0_2_3206)">
<path d="M411.036 57.0031C416.811 57.0031 421.303 52.2975 421.303 46.5225C421.303 40.7475 416.597 36.2559 410.822 36.2559C405.047 36.2559 400.556 40.9614 400.556 46.5225C400.556 52.2975 405.261 57.0031 411.036 57.0031ZM410.822 40.5336C411.036 40.5336 411.036 40.5336 410.822 40.5336C414.245 40.5336 417.025 43.3142 417.025 46.7364C417.025 50.1586 414.245 52.7253 410.822 52.7253C407.4 52.7253 404.833 49.9447 404.833 46.7364C404.833 43.3142 407.614 40.5336 410.822 40.5336Z" fill="#686FA9"/>
<path d="M442.691 55.7198C438.627 52.0837 433.28 50.1587 427.719 50.3725H426.008C425.58 52.0837 424.939 53.5809 424.083 54.8642C425.366 54.6503 426.436 54.6503 427.719 54.6503C431.783 54.4364 435.847 55.7198 439.055 58.0725V73.4725H443.333V56.3614L442.691 55.7198Z" fill="#686FA9"/>
<path d="M422.8 36.6824C423.87 34.1157 426.864 32.8324 429.645 33.9018C432.211 34.9713 433.495 37.9657 432.425 40.7463C431.57 42.6713 429.645 43.9546 427.72 43.9546C427.292 43.9546 426.65 43.9546 426.222 43.7407C426.436 44.8102 426.436 45.8796 426.436 46.7352V48.0185C426.864 48.0185 427.292 48.2324 427.72 48.2324C433.067 48.2324 437.345 43.9546 437.345 38.8213C437.345 33.4741 433.067 29.1963 427.933 29.1963C424.511 29.1963 421.517 30.9074 419.806 33.9018C420.875 34.5435 421.945 35.3991 422.8 36.6824Z" fill="#686FA9"/>
<path d="M398.417 55.0781C397.561 53.7948 396.92 52.2975 396.492 50.5864H394.781C389.22 50.3725 383.873 52.2975 379.809 55.7198L379.167 56.3614V73.4725H383.445V58.0725C386.867 55.7198 390.717 54.4364 394.781 54.6503C396.064 54.6503 397.348 54.8642 398.417 55.0781Z" fill="#686FA9"/>
<path d="M394.781 48.0202C395.209 48.0202 395.636 48.0202 396.064 47.8063V46.5229C396.064 45.4535 396.064 44.3841 396.278 43.5285C395.85 43.7424 395.209 43.7424 394.781 43.7424C392 43.7424 389.648 41.3896 389.648 38.6091C389.648 35.8285 392 33.4757 394.781 33.4757C396.92 33.4757 398.845 34.7591 399.7 36.6841C400.556 35.6146 401.839 34.5452 402.909 33.6896C400.128 29.1979 394.353 27.7007 389.861 30.4813C385.37 33.2618 383.873 39.0368 386.653 43.5285C388.364 46.3091 391.359 48.0202 394.781 48.0202Z" fill="#686FA9"/>
<path d="M428.575 68.5533L428.147 67.9117C423.869 63.2061 417.88 60.4255 411.464 60.6394C405.047 60.4255 398.844 63.2061 394.566 67.9117L394.139 68.5533V84.8089C394.139 86.7339 395.636 88.445 397.775 88.445H425.153C427.078 88.445 428.789 86.7339 428.789 84.8089V68.5533H428.575ZM424.297 84.1672H398.416V70.0505C401.839 66.6283 406.544 64.9172 411.464 64.9172C416.169 64.7033 420.875 66.6283 424.297 70.0505V84.1672Z" fill="#686FA9"/>
</g>
<path d="M360.21 115.12H353.19V119.68C353.497 119.253 353.95 118.907 354.55 118.64C355.15 118.36 355.797 118.22 356.49 118.22C357.597 118.22 358.497 118.453 359.19 118.92C359.883 119.373 360.377 119.967 360.67 120.7C360.977 121.42 361.13 122.187 361.13 123C361.13 123.96 360.95 124.82 360.59 125.58C360.23 126.34 359.677 126.94 358.93 127.38C358.197 127.82 357.283 128.04 356.19 128.04C354.79 128.04 353.657 127.68 352.79 126.96C351.923 126.24 351.397 125.28 351.21 124.08H352.99C353.163 124.84 353.53 125.433 354.09 125.86C354.65 126.287 355.357 126.5 356.21 126.5C357.263 126.5 358.057 126.187 358.59 125.56C359.123 124.92 359.39 124.08 359.39 123.04C359.39 122 359.123 121.2 358.59 120.64C358.057 120.067 357.27 119.78 356.23 119.78C355.523 119.78 354.903 119.953 354.37 120.3C353.85 120.633 353.47 121.093 353.23 121.68H351.51V113.52H360.21V115.12ZM363.329 126.54C365.022 125.18 366.349 124.067 367.309 123.2C368.269 122.32 369.075 121.407 369.729 120.46C370.395 119.5 370.729 118.56 370.729 117.64C370.729 116.773 370.515 116.093 370.089 115.6C369.675 115.093 369.002 114.84 368.069 114.84C367.162 114.84 366.455 115.127 365.949 115.7C365.455 116.26 365.189 117.013 365.149 117.96H363.389C363.442 116.467 363.895 115.313 364.749 114.5C365.602 113.687 366.702 113.28 368.049 113.28C369.422 113.28 370.509 113.66 371.309 114.42C372.122 115.18 372.529 116.227 372.529 117.56C372.529 118.667 372.195 119.747 371.529 120.8C370.875 121.84 370.129 122.76 369.289 123.56C368.449 124.347 367.375 125.267 366.069 126.32H372.949V127.84H363.329V126.54ZM385.753 121.46H381.493V125.78H379.793V121.46H375.553V119.92H379.793V115.58H381.493V119.92H385.753V121.46ZM393.657 121.02C393.657 119.66 393.964 118.44 394.577 117.36C395.19 116.267 396.024 115.413 397.077 114.8C398.144 114.187 399.324 113.88 400.617 113.88C402.137 113.88 403.464 114.247 404.597 114.98C405.73 115.713 406.557 116.753 407.077 118.1H404.897C404.51 117.26 403.95 116.613 403.217 116.16C402.497 115.707 401.63 115.48 400.617 115.48C399.644 115.48 398.77 115.707 397.997 116.16C397.224 116.613 396.617 117.26 396.177 118.1C395.737 118.927 395.517 119.9 395.517 121.02C395.517 122.127 395.737 123.1 396.177 123.94C396.617 124.767 397.224 125.407 397.997 125.86C398.77 126.313 399.644 126.54 400.617 126.54C401.63 126.54 402.497 126.32 403.217 125.88C403.95 125.427 404.51 124.78 404.897 123.94H407.077C406.557 125.273 405.73 126.307 404.597 127.04C403.464 127.76 402.137 128.12 400.617 128.12C399.324 128.12 398.144 127.82 397.077 127.22C396.024 126.607 395.19 125.76 394.577 124.68C393.964 123.6 393.657 122.38 393.657 121.02ZM414.566 128.18C413.539 128.18 412.606 127.947 411.766 127.48C410.939 127.013 410.286 126.353 409.806 125.5C409.339 124.633 409.106 123.633 409.106 122.5C409.106 121.38 409.346 120.393 409.826 119.54C410.319 118.673 410.986 118.013 411.826 117.56C412.666 117.093 413.606 116.86 414.646 116.86C415.686 116.86 416.626 117.093 417.466 117.56C418.306 118.013 418.966 118.667 419.446 119.52C419.939 120.373 420.186 121.367 420.186 122.5C420.186 123.633 419.933 124.633 419.426 125.5C418.933 126.353 418.259 127.013 417.406 127.48C416.553 127.947 415.606 128.18 414.566 128.18ZM414.566 126.58C415.219 126.58 415.833 126.427 416.406 126.12C416.979 125.813 417.439 125.353 417.786 124.74C418.146 124.127 418.326 123.38 418.326 122.5C418.326 121.62 418.153 120.873 417.806 120.26C417.459 119.647 417.006 119.193 416.446 118.9C415.886 118.593 415.279 118.44 414.626 118.44C413.959 118.44 413.346 118.593 412.786 118.9C412.239 119.193 411.799 119.647 411.466 120.26C411.133 120.873 410.966 121.62 410.966 122.5C410.966 123.393 411.126 124.147 411.446 124.76C411.779 125.373 412.219 125.833 412.766 126.14C413.313 126.433 413.913 126.58 414.566 126.58ZM428.019 116.84C428.846 116.84 429.592 117.02 430.259 117.38C430.926 117.727 431.446 118.253 431.819 118.96C432.206 119.667 432.399 120.527 432.399 121.54V128H430.599V121.8C430.599 120.707 430.326 119.873 429.779 119.3C429.232 118.713 428.486 118.42 427.539 118.42C426.579 118.42 425.812 118.72 425.239 119.32C424.679 119.92 424.399 120.793 424.399 121.94V128H422.579V113.2H424.399V118.6C424.759 118.04 425.252 117.607 425.879 117.3C426.519 116.993 427.232 116.84 428.019 116.84ZM440.152 128.18C439.125 128.18 438.192 127.947 437.352 127.48C436.525 127.013 435.872 126.353 435.392 125.5C434.925 124.633 434.692 123.633 434.692 122.5C434.692 121.38 434.932 120.393 435.412 119.54C435.905 118.673 436.572 118.013 437.412 117.56C438.252 117.093 439.192 116.86 440.232 116.86C441.272 116.86 442.212 117.093 443.052 117.56C443.892 118.013 444.552 118.667 445.032 119.52C445.525 120.373 445.772 121.367 445.772 122.5C445.772 123.633 445.519 124.633 445.012 125.5C444.519 126.353 443.845 127.013 442.992 127.48C442.139 127.947 441.192 128.18 440.152 128.18ZM440.152 126.58C440.805 126.58 441.419 126.427 441.992 126.12C442.565 125.813 443.025 125.353 443.372 124.74C443.732 124.127 443.912 123.38 443.912 122.5C443.912 121.62 443.739 120.873 443.392 120.26C443.045 119.647 442.592 119.193 442.032 118.9C441.472 118.593 440.865 118.44 440.212 118.44C439.545 118.44 438.932 118.593 438.372 118.9C437.825 119.193 437.385 119.647 437.052 120.26C436.719 120.873 436.552 121.62 436.552 122.5C436.552 123.393 436.712 124.147 437.032 124.76C437.365 125.373 437.805 125.833 438.352 126.14C438.899 126.433 439.499 126.58 440.152 126.58ZM449.985 118.82C450.305 118.193 450.758 117.707 451.345 117.36C451.945 117.013 452.672 116.84 453.525 116.84V118.72H453.045C451.005 118.72 449.985 119.827 449.985 122.04V128H448.165V117.04H449.985V118.82ZM457.846 118.54V125C457.846 125.533 457.959 125.913 458.186 126.14C458.413 126.353 458.806 126.46 459.366 126.46H460.706V128H459.066C458.053 128 457.293 127.767 456.786 127.3C456.279 126.833 456.026 126.067 456.026 125V118.54H454.606V117.04H456.026V114.28H457.846V117.04H460.706V118.54H457.846ZM466.791 128.18C465.951 128.18 465.198 128.04 464.531 127.76C463.864 127.467 463.338 127.067 462.951 126.56C462.564 126.04 462.351 125.447 462.311 124.78H464.191C464.244 125.327 464.498 125.773 464.951 126.12C465.418 126.467 466.024 126.64 466.771 126.64C467.464 126.64 468.011 126.487 468.411 126.18C468.811 125.873 469.011 125.487 469.011 125.02C469.011 124.54 468.798 124.187 468.371 123.96C467.944 123.72 467.284 123.487 466.391 123.26C465.578 123.047 464.911 122.833 464.391 122.62C463.884 122.393 463.444 122.067 463.071 121.64C462.711 121.2 462.531 120.627 462.531 119.92C462.531 119.36 462.698 118.847 463.031 118.38C463.364 117.913 463.838 117.547 464.451 117.28C465.064 117 465.764 116.86 466.551 116.86C467.764 116.86 468.744 117.167 469.491 117.78C470.238 118.393 470.638 119.233 470.691 120.3H468.871C468.831 119.727 468.598 119.267 468.171 118.92C467.758 118.573 467.198 118.4 466.491 118.4C465.838 118.4 465.318 118.54 464.931 118.82C464.544 119.1 464.351 119.467 464.351 119.92C464.351 120.28 464.464 120.58 464.691 120.82C464.931 121.047 465.224 121.233 465.571 121.38C465.931 121.513 466.424 121.667 467.051 121.84C467.838 122.053 468.478 122.267 468.971 122.48C469.464 122.68 469.884 122.987 470.231 123.4C470.591 123.813 470.778 124.353 470.791 125.02C470.791 125.62 470.624 126.16 470.291 126.64C469.958 127.12 469.484 127.5 468.871 127.78C468.271 128.047 467.578 128.18 466.791 128.18Z" fill="#686FA9"/>
<rect width="77" height="77" transform="translate(691.5 20)" fill="#F6F4F5"/>
<path d="M760.078 64.5156V48.875L730 33.2344L699.922 48.875L730 64.5156L745.641 57.2969V74.1406C745.641 78.9531 738.422 83.7656 730 83.7656C721.578 83.7656 714.359 78.9531 714.359 74.1406V57.2969" stroke="#686FA9" stroke-width="7.21875" stroke-linecap="round" stroke-linejoin="round"/>
<path d="M645.86 128.14C644.567 128.14 643.387 127.84 642.32 127.24C641.253 126.627 640.407 125.78 639.78 124.7C639.167 123.607 638.86 122.38 638.86 121.02C638.86 119.66 639.167 118.44 639.78 117.36C640.407 116.267 641.253 115.42 642.32 114.82C643.387 114.207 644.567 113.9 645.86 113.9C647.167 113.9 648.353 114.207 649.42 114.82C650.487 115.42 651.327 116.26 651.94 117.34C652.553 118.42 652.86 119.647 652.86 121.02C652.86 122.393 652.553 123.62 651.94 124.7C651.327 125.78 650.487 126.627 649.42 127.24C648.353 127.84 647.167 128.14 645.86 128.14ZM645.86 126.56C646.833 126.56 647.707 126.333 648.48 125.88C649.267 125.427 649.88 124.78 650.32 123.94C650.773 123.1 651 122.127 651 121.02C651 119.9 650.773 118.927 650.32 118.1C649.88 117.26 649.273 116.613 648.5 116.16C647.727 115.707 646.847 115.48 645.86 115.48C644.873 115.48 643.993 115.707 643.22 116.16C642.447 116.613 641.833 117.26 641.38 118.1C640.94 118.927 640.72 119.9 640.72 121.02C640.72 122.127 640.94 123.1 641.38 123.94C641.833 124.78 642.447 125.427 643.22 125.88C644.007 126.333 644.887 126.56 645.86 126.56ZM659.343 126.32L662.743 117.04H664.683L660.383 128H658.263L653.963 117.04H655.923L659.343 126.32ZM676.474 122.1C676.474 122.447 676.454 122.813 676.414 123.2H667.654C667.72 124.28 668.087 125.127 668.754 125.74C669.434 126.34 670.254 126.64 671.214 126.64C672 126.64 672.654 126.46 673.174 126.1C673.707 125.727 674.08 125.233 674.294 124.62H676.254C675.96 125.673 675.374 126.533 674.494 127.2C673.614 127.853 672.52 128.18 671.214 128.18C670.174 128.18 669.24 127.947 668.414 127.48C667.6 127.013 666.96 126.353 666.494 125.5C666.027 124.633 665.794 123.633 665.794 122.5C665.794 121.367 666.02 120.373 666.474 119.52C666.927 118.667 667.56 118.013 668.374 117.56C669.2 117.093 670.147 116.86 671.214 116.86C672.254 116.86 673.174 117.087 673.974 117.54C674.774 117.993 675.387 118.62 675.814 119.42C676.254 120.207 676.474 121.1 676.474 122.1ZM674.594 121.72C674.594 121.027 674.44 120.433 674.134 119.94C673.827 119.433 673.407 119.053 672.874 118.8C672.354 118.533 671.774 118.4 671.134 118.4C670.214 118.4 669.427 118.693 668.774 119.28C668.134 119.867 667.767 120.68 667.674 121.72H674.594ZM680.696 118.82C681.016 118.193 681.469 117.707 682.056 117.36C682.656 117.013 683.383 116.84 684.236 116.84V118.72H683.756C681.716 118.72 680.696 119.827 680.696 122.04V128H678.876V117.04H680.696V118.82ZM693.709 124.12C693.842 124.88 694.149 125.467 694.629 125.88C695.122 126.293 695.782 126.5 696.609 126.5C697.716 126.5 698.529 126.067 699.049 125.2C699.582 124.333 699.836 122.873 699.809 120.82C699.529 121.42 699.062 121.893 698.409 122.24C697.756 122.573 697.029 122.74 696.229 122.74C695.336 122.74 694.536 122.56 693.829 122.2C693.136 121.827 692.589 121.287 692.189 120.58C691.789 119.873 691.589 119.02 691.589 118.02C691.589 116.593 692.002 115.447 692.829 114.58C693.656 113.7 694.829 113.26 696.349 113.26C698.216 113.26 699.522 113.867 700.269 115.08C701.029 116.293 701.409 118.1 701.409 120.5C701.409 122.18 701.256 123.567 700.949 124.66C700.656 125.753 700.149 126.587 699.429 127.16C698.722 127.733 697.749 128.02 696.509 128.02C695.149 128.02 694.089 127.653 693.329 126.92C692.569 126.187 692.136 125.253 692.029 124.12H693.709ZM696.529 121.2C697.422 121.2 698.156 120.927 698.729 120.38C699.302 119.82 699.589 119.067 699.589 118.12C699.589 117.12 699.309 116.313 698.749 115.7C698.189 115.087 697.402 114.78 696.389 114.78C695.456 114.78 694.709 115.073 694.149 115.66C693.602 116.247 693.329 117.02 693.329 117.98C693.329 118.953 693.602 119.733 694.149 120.32C694.696 120.907 695.489 121.2 696.529 121.2ZM703.967 120.62C703.967 118.327 704.34 116.54 705.087 115.26C705.833 113.967 707.14 113.32 709.007 113.32C710.86 113.32 712.16 113.967 712.907 115.26C713.653 116.54 714.027 118.327 714.027 120.62C714.027 122.953 713.653 124.767 712.907 126.06C712.16 127.353 710.86 128 709.007 128C707.14 128 705.833 127.353 705.087 126.06C704.34 124.767 703.967 122.953 703.967 120.62ZM712.227 120.62C712.227 119.46 712.147 118.48 711.987 117.68C711.84 116.867 711.527 116.213 711.047 115.72C710.58 115.227 709.9 114.98 709.007 114.98C708.1 114.98 707.407 115.227 706.927 115.72C706.46 116.213 706.147 116.867 705.987 117.68C705.84 118.48 705.767 119.46 705.767 120.62C705.767 121.82 705.84 122.827 705.987 123.64C706.147 124.453 706.46 125.107 706.927 125.6C707.407 126.093 708.1 126.34 709.007 126.34C709.9 126.34 710.58 126.093 711.047 125.6C711.527 125.107 711.84 124.453 711.987 123.64C712.147 122.827 712.227 121.82 712.227 120.62ZM716.525 120.62C716.525 118.327 716.898 116.54 717.645 115.26C718.392 113.967 719.698 113.32 721.565 113.32C723.418 113.32 724.718 113.967 725.465 115.26C726.212 116.54 726.585 118.327 726.585 120.62C726.585 122.953 726.212 124.767 725.465 126.06C724.718 127.353 723.418 128 721.565 128C719.698 128 718.392 127.353 717.645 126.06C716.898 124.767 716.525 122.953 716.525 120.62ZM724.785 120.62C724.785 119.46 724.705 118.48 724.545 117.68C724.398 116.867 724.085 116.213 723.605 115.72C723.138 115.227 722.458 114.98 721.565 114.98C720.658 114.98 719.965 115.227 719.485 115.72C719.018 116.213 718.705 116.867 718.545 117.68C718.398 118.48 718.325 119.46 718.325 120.62C718.325 121.82 718.398 122.827 718.545 123.64C718.705 124.453 719.018 125.107 719.485 125.6C719.965 126.093 720.658 126.34 721.565 126.34C722.458 126.34 723.138 126.093 723.605 125.6C724.085 125.107 724.398 124.453 724.545 123.64C724.705 122.827 724.785 121.82 724.785 120.62ZM739.136 128.14C738.216 128.14 737.389 127.98 736.656 127.66C735.936 127.327 735.369 126.873 734.956 126.3C734.542 125.713 734.329 125.04 734.316 124.28H736.256C736.322 124.933 736.589 125.487 737.056 125.94C737.536 126.38 738.229 126.6 739.136 126.6C740.002 126.6 740.682 126.387 741.176 125.96C741.682 125.52 741.936 124.96 741.936 124.28C741.936 123.747 741.789 123.313 741.496 122.98C741.202 122.647 740.836 122.393 740.396 122.22C739.956 122.047 739.362 121.86 738.616 121.66C737.696 121.42 736.956 121.18 736.396 120.94C735.849 120.7 735.376 120.327 734.976 119.82C734.589 119.3 734.396 118.607 734.396 117.74C734.396 116.98 734.589 116.307 734.976 115.72C735.362 115.133 735.902 114.68 736.596 114.36C737.302 114.04 738.109 113.88 739.016 113.88C740.322 113.88 741.389 114.207 742.216 114.86C743.056 115.513 743.529 116.38 743.636 117.46H741.636C741.569 116.927 741.289 116.46 740.796 116.06C740.302 115.647 739.649 115.44 738.836 115.44C738.076 115.44 737.456 115.64 736.976 116.04C736.496 116.427 736.256 116.973 736.256 117.68C736.256 118.187 736.396 118.6 736.676 118.92C736.969 119.24 737.322 119.487 737.736 119.66C738.162 119.82 738.756 120.007 739.516 120.22C740.436 120.473 741.176 120.727 741.736 120.98C742.296 121.22 742.776 121.6 743.176 122.12C743.576 122.627 743.776 123.32 743.776 124.2C743.776 124.88 743.596 125.52 743.236 126.12C742.876 126.72 742.342 127.207 741.636 127.58C740.929 127.953 740.096 128.14 739.136 128.14ZM748.674 118.54V125C748.674 125.533 748.787 125.913 749.014 126.14C749.241 126.353 749.634 126.46 750.194 126.46H751.534V128H749.894C748.881 128 748.121 127.767 747.614 127.3C747.107 126.833 746.854 126.067 746.854 125V118.54H745.434V117.04H746.854V114.28H748.674V117.04H751.534V118.54H748.674ZM763.459 117.04V128H761.639V126.38C761.293 126.94 760.806 127.38 760.179 127.7C759.566 128.007 758.886 128.16 758.139 128.16C757.286 128.16 756.519 127.987 755.839 127.64C755.159 127.28 754.619 126.747 754.219 126.04C753.833 125.333 753.639 124.473 753.639 123.46V117.04H755.439V123.22C755.439 124.3 755.713 125.133 756.259 125.72C756.806 126.293 757.553 126.58 758.499 126.58C759.473 126.58 760.239 126.28 760.799 125.68C761.359 125.08 761.639 124.207 761.639 123.06V117.04H763.459ZM765.852 122.48C765.852 121.36 766.079 120.38 766.532 119.54C766.986 118.687 767.606 118.027 768.392 117.56C769.192 117.093 770.086 116.86 771.072 116.86C771.926 116.86 772.719 117.06 773.452 117.46C774.186 117.847 774.746 118.36 775.132 119V113.2H776.972V128H775.132V125.94C774.772 126.593 774.239 127.133 773.532 127.56C772.826 127.973 771.999 128.18 771.052 128.18C770.079 128.18 769.192 127.94 768.392 127.46C767.606 126.98 766.986 126.307 766.532 125.44C766.079 124.573 765.852 123.587 765.852 122.48ZM775.132 122.5C775.132 121.673 774.966 120.953 774.632 120.34C774.299 119.727 773.846 119.26 773.272 118.94C772.712 118.607 772.092 118.44 771.412 118.44C770.732 118.44 770.112 118.6 769.552 118.92C768.992 119.24 768.546 119.707 768.212 120.32C767.879 120.933 767.712 121.653 767.712 122.48C767.712 123.32 767.879 124.053 768.212 124.68C768.546 125.293 768.992 125.767 769.552 126.1C770.112 126.42 770.732 126.58 771.412 126.58C772.092 126.58 772.712 126.42 773.272 126.1C773.846 125.767 774.299 125.293 774.632 124.68C774.966 124.053 775.132 123.327 775.132 122.5ZM790.048 122.1C790.048 122.447 790.028 122.813 789.988 123.2H781.228C781.294 124.28 781.661 125.127 782.328 125.74C783.008 126.34 783.828 126.64 784.788 126.64C785.574 126.64 786.228 126.46 786.748 126.1C787.281 125.727 787.654 125.233 787.868 124.62H789.828C789.534 125.673 788.948 126.533 788.068 127.2C787.188 127.853 786.094 128.18 784.788 128.18C783.748 128.18 782.814 127.947 781.988 127.48C781.174 127.013 780.534 126.353 780.068 125.5C779.601 124.633 779.368 123.633 779.368 122.5C779.368 121.367 779.594 120.373 780.048 119.52C780.501 118.667 781.134 118.013 781.948 117.56C782.774 117.093 783.721 116.86 784.788 116.86C785.828 116.86 786.748 117.087 787.548 117.54C788.348 117.993 788.961 118.62 789.388 119.42C789.828 120.207 790.048 121.1 790.048 122.1ZM788.168 121.72C788.168 121.027 788.014 120.433 787.708 119.94C787.401 119.433 786.981 119.053 786.448 118.8C785.928 118.533 785.348 118.4 784.708 118.4C783.788 118.4 783.001 118.693 782.348 119.28C781.708 119.867 781.341 120.68 781.248 121.72H788.168ZM797.79 116.84C799.123 116.84 800.203 117.247 801.03 118.06C801.857 118.86 802.27 120.02 802.27 121.54V128H800.47V121.8C800.47 120.707 800.197 119.873 799.65 119.3C799.103 118.713 798.357 118.42 797.41 118.42C796.45 118.42 795.683 118.72 795.11 119.32C794.55 119.92 794.27 120.793 794.27 121.94V128H792.45V117.04H794.27V118.6C794.63 118.04 795.117 117.607 795.73 117.3C796.357 116.993 797.043 116.84 797.79 116.84ZM807.463 118.54V125C807.463 125.533 807.576 125.913 807.803 126.14C808.03 126.353 808.423 126.46 808.983 126.46H810.323V128H808.683C807.67 128 806.91 127.767 806.403 127.3C805.896 126.833 805.643 126.067 805.643 125V118.54H804.223V117.04H805.643V114.28H807.463V117.04H810.323V118.54H807.463ZM816.408 128.18C815.568 128.18 814.815 128.04 814.148 127.76C813.482 127.467 812.955 127.067 812.568 126.56C812.182 126.04 811.968 125.447 811.928 124.78H813.808C813.862 125.327 814.115 125.773 814.568 126.12C815.035 126.467 815.642 126.64 816.388 126.64C817.082 126.64 817.628 126.487 818.028 126.18C818.428 125.873 818.628 125.487 818.628 125.02C818.628 124.54 818.415 124.187 817.988 123.96C817.562 123.72 816.902 123.487 816.008 123.26C815.195 123.047 814.528 122.833 814.008 122.62C813.502 122.393 813.062 122.067 812.688 121.64C812.328 121.2 812.148 120.627 812.148 119.92C812.148 119.36 812.315 118.847 812.648 118.38C812.982 117.913 813.455 117.547 814.068 117.28C814.682 117 815.382 116.86 816.168 116.86C817.382 116.86 818.362 117.167 819.108 117.78C819.855 118.393 820.255 119.233 820.308 120.3H818.488C818.448 119.727 818.215 119.267 817.788 118.92C817.375 118.573 816.815 118.4 816.108 118.4C815.455 118.4 814.935 118.54 814.548 118.82C814.162 119.1 813.968 119.467 813.968 119.92C813.968 120.28 814.082 120.58 814.308 120.82C814.548 121.047 814.842 121.233 815.188 121.38C815.548 121.513 816.042 121.667 816.668 121.84C817.455 122.053 818.095 122.267 818.588 122.48C819.082 122.68 819.502 122.987 819.848 123.4C820.208 123.813 820.395 124.353 820.408 125.02C820.408 125.62 820.242 126.16 819.908 126.64C819.575 127.12 819.102 127.5 818.488 127.78C817.888 128.047 817.195 128.18 816.408 128.18Z" fill="#686FA9"/>
<line x1="262.5" y1="19.9957" x2="263.5" y2="135.996" stroke="#686FA9"/>
<line x1="587.5" y1="19.9957" x2="588.5" y2="135.996" stroke="#686FA9"/>
</g>
<defs>
<filter id="filter0_d_2_3206" x="0" y="0" width="884" height="165" filterUnits="userSpaceOnUse" color-interpolation-filters="sRGB">
<feFlood flood-opacity="0" result="BackgroundImageFix"/>
<feColorMatrix in="SourceAlpha" type="matrix" values="0 0 0 0 0 0 0 0 0 0 0 0 0 0 0 0 0 0 127 0" result="hardAlpha"/>
<feOffset dx="4" dy="4"/>
<feGaussianBlur stdDeviation="2"/>
<feComposite in2="hardAlpha" operator="out"/>
<feColorMatrix type="matrix" values="0 0 0 0 0 0 0 0 0 0 0 0 0 0 0 0 0 0 0.25 0"/>
<feBlend mode="normal" in2="BackgroundImageFix" result="effect1_dropShadow_2_3206"/>
<feBlend mode="normal" in="SourceGraphic" in2="effect1_dropShadow_2_3206" result="shape"/>
</filter>
<clipPath id="clip0_2_3206">
<rect width="77" height="77" fill="white" transform="translate(372.75 20)"/>
</clipPath>
</defs>
</svg>
