<svg width="169" height="59" viewBox="0 0 169 59" fill="none" xmlns="http://www.w3.org/2000/svg">
<g filter="url(#filter0_d_276_289)">
<rect x="4" y="0.489746" width="160" height="50.005" rx="10" transform="rotate(-0.175437 4 0.489746)" fill="#D5D5D9" fill-opacity="0.25" shape-rendering="crispEdges"/>
<path d="M23.2737 19.768C24.4577 19.768 25.4924 20.0027 26.3777 20.472C27.2631 20.9413 27.9457 21.6027 28.4257 22.456C28.9164 23.2987 29.1617 24.2747 29.1617 25.384C29.1617 26.4827 28.9164 27.4587 28.4257 28.312C27.9457 29.1653 27.2577 29.8267 26.3617 30.296C25.4764 30.7653 24.4471 31 23.2737 31L19.0657 31L19.0657 19.768L23.2737 19.768ZM23.0977 28.632C24.1324 28.632 24.9377 28.3493 25.5137 27.784C26.0897 27.2187 26.3777 26.4187 26.3777 25.384C26.3777 24.3493 26.0897 23.544 25.5137 22.968C24.9377 22.392 24.1324 22.104 23.0977 22.104L21.8017 22.104L21.8017 28.632L23.0977 28.632ZM30.1467 26.52C30.1467 25.6027 30.3174 24.7973 30.6587 24.104C31.0107 23.4107 31.4854 22.8773 32.0827 22.504C32.6801 22.1307 33.3467 21.944 34.0827 21.944C34.7121 21.944 35.2614 22.072 35.7307 22.328C36.2107 22.584 36.5787 22.92 36.8347 23.336L36.8347 22.072L39.5707 22.072L39.5707 31L36.8347 31L36.8347 29.736C36.5681 30.152 36.1947 30.488 35.7147 30.744C35.2454 31 34.6961 31.128 34.0667 31.128C33.3414 31.128 32.6801 30.9413 32.0827 30.568C31.4854 30.184 31.0107 29.6453 30.6587 28.952C30.3174 28.248 30.1467 27.4373 30.1467 26.52ZM36.8347 26.536C36.8347 25.8533 36.6427 25.3147 36.2587 24.92C35.8854 24.5253 35.4267 24.328 34.8827 24.328C34.3387 24.328 33.8747 24.5253 33.4907 24.92C33.1174 25.304 32.9307 25.8373 32.9307 26.52C32.9307 27.2027 33.1174 27.7467 33.4907 28.152C33.8747 28.5467 34.3387 28.744 34.8827 28.744C35.4267 28.744 35.8854 28.5467 36.2587 28.152C36.6427 27.7573 36.8347 27.2187 36.8347 26.536ZM46.5261 28.68L46.5261 31L45.1341 31C44.1421 31 43.3688 30.76 42.8141 30.28C42.2594 29.7893 41.9821 28.9947 41.9821 27.896L41.9821 24.344L40.8941 24.344L40.8941 22.072L41.9821 22.072L41.9821 19.896L44.7181 19.896L44.7181 22.072L46.5101 22.072L46.5101 24.344L44.7181 24.344L44.7181 27.928C44.7181 28.1947 44.7821 28.3867 44.9101 28.504C45.0381 28.6213 45.2514 28.68 45.5501 28.68L46.5261 28.68ZM47.5061 26.52C47.5061 25.6027 47.6768 24.7973 48.0181 24.104C48.3701 23.4107 48.8448 22.8773 49.4421 22.504C50.0394 22.1307 50.7061 21.944 51.4421 21.944C52.0714 21.944 52.6208 22.072 53.0901 22.328C53.5701 22.584 53.9381 22.92 54.1941 23.336L54.1941 22.072L56.9301 22.072L56.9301 31L54.1941 31L54.1941 29.736C53.9274 30.152 53.5541 30.488 53.0741 30.744C52.6048 31 52.0554 31.128 51.4261 31.128C50.7008 31.128 50.0394 30.9413 49.4421 30.568C48.8448 30.184 48.3701 29.6453 48.0181 28.952C47.6768 28.248 47.5061 27.4373 47.5061 26.52ZM54.1941 26.536C54.1941 25.8533 54.0021 25.3147 53.6181 24.92C53.2448 24.5253 52.7861 24.328 52.2421 24.328C51.6981 24.328 51.2341 24.5253 50.8501 24.92C50.4768 25.304 50.2901 25.8373 50.2901 26.52C50.2901 27.2027 50.4768 27.7467 50.8501 28.152C51.2341 28.5467 51.6981 28.744 52.2421 28.744C52.7861 28.744 53.2448 28.5467 53.6181 28.152C54.0021 27.7573 54.1941 27.2187 54.1941 26.536ZM65.9321 31.128C65.1534 31.128 64.4601 30.9947 63.8521 30.728C63.2441 30.4613 62.7641 30.0987 62.4121 29.64C62.0601 29.1707 61.8628 28.648 61.8201 28.072L64.5241 28.072C64.5561 28.3813 64.7001 28.632 64.9561 28.824C65.2121 29.016 65.5268 29.112 65.9001 29.112C66.2414 29.112 66.5028 29.048 66.6841 28.92C66.8761 28.7813 66.9721 28.6053 66.9721 28.392C66.9721 28.136 66.8388 27.9493 66.5721 27.832C66.3054 27.704 65.8734 27.5653 65.2761 27.416C64.6361 27.2667 64.1028 27.112 63.6761 26.952C63.2494 26.7813 62.8814 26.52 62.5721 26.168C62.2628 25.8053 62.1081 25.32 62.1081 24.712C62.1081 24.2 62.2468 23.736 62.5241 23.32C62.8121 22.8933 63.2281 22.5573 63.7721 22.312C64.3268 22.0667 64.9828 21.944 65.7401 21.944C66.8601 21.944 67.7401 22.2213 68.3801 22.776C69.0308 23.3307 69.4041 24.0667 69.5001 24.984L66.9721 24.984C66.9294 24.6747 66.7908 24.4293 66.5561 24.248C66.3321 24.0667 66.0334 23.976 65.6601 23.976C65.3401 23.976 65.0948 24.04 64.9241 24.168C64.7534 24.2853 64.6681 24.4507 64.6681 24.664C64.6681 24.92 64.8014 25.112 65.0681 25.24C65.3454 25.368 65.7721 25.496 66.3481 25.624C67.0094 25.7947 67.5481 25.9653 67.9641 26.136C68.3801 26.296 68.7428 26.5627 69.0521 26.936C69.3721 27.2987 69.5374 27.7893 69.5481 28.408C69.5481 28.9307 69.3988 29.4 69.1001 29.816C68.8121 30.2213 68.3908 30.5413 67.8361 30.776C67.2921 31.0107 66.6574 31.128 65.9321 31.128ZM70.678 26.536C70.678 25.608 70.8646 24.7973 71.238 24.104C71.622 23.4107 72.15 22.8773 72.822 22.504C73.5046 22.1307 74.2833 21.944 75.158 21.944C76.278 21.944 77.2113 22.2373 77.958 22.824C78.7153 23.4107 79.2113 24.2373 79.446 25.304L76.534 25.304C76.2886 24.6213 75.814 24.28 75.11 24.28C74.6086 24.28 74.2086 24.4773 73.91 24.872C73.6113 25.256 73.462 25.8107 73.462 26.536C73.462 27.2613 73.6113 27.8213 73.91 28.216C74.2086 28.6 74.6086 28.792 75.11 28.792C75.814 28.792 76.2886 28.4507 76.534 27.768L79.446 27.768C79.2113 28.8133 78.7153 29.6347 77.958 30.232C77.2006 30.8293 76.2673 31.128 75.158 31.128C74.2833 31.128 73.5046 30.9413 72.822 30.568C72.15 30.1947 71.622 29.6613 71.238 28.968C70.8646 28.2747 70.678 27.464 70.678 26.536ZM82.2855 21.144C81.8055 21.144 81.4108 21.0053 81.1015 20.728C80.8028 20.44 80.6535 20.088 80.6535 19.672C80.6535 19.2453 80.8028 18.8933 81.1015 18.616C81.4108 18.328 81.8055 18.184 82.2855 18.184C82.7548 18.184 83.1388 18.328 83.4375 18.616C83.7468 18.8933 83.9015 19.2453 83.9015 19.672C83.9015 20.088 83.7468 20.44 83.4375 20.728C83.1388 21.0053 82.7548 21.144 82.2855 21.144ZM83.6455 22.072L83.6455 31L80.9095 31L80.9095 22.072L83.6455 22.072ZM94.0442 26.392C94.0442 26.648 94.0282 26.9147 93.9962 27.192L87.8042 27.192C87.8469 27.7467 88.0229 28.1733 88.3322 28.472C88.6522 28.76 89.0416 28.904 89.5002 28.904C90.1829 28.904 90.6576 28.616 90.9242 28.04L93.8362 28.04C93.6869 28.6267 93.4149 29.1547 93.0202 29.624C92.6362 30.0933 92.1509 30.4613 91.5642 30.728C90.9776 30.9947 90.3216 31.128 89.5962 31.128C88.7216 31.128 87.9429 30.9413 87.2602 30.568C86.5776 30.1947 86.0442 29.6613 85.6602 28.968C85.2762 28.2747 85.0842 27.464 85.0842 26.536C85.0842 25.608 85.2709 24.7973 85.6442 24.104C86.0282 23.4107 86.5616 22.8773 87.2442 22.504C87.9269 22.1307 88.7109 21.944 89.5962 21.944C90.4602 21.944 91.2282 22.1253 91.9002 22.488C92.5722 22.8507 93.0949 23.368 93.4682 24.04C93.8522 24.712 94.0442 25.496 94.0442 26.392ZM91.2442 25.672C91.2442 25.2027 91.0842 24.8293 90.7642 24.552C90.4442 24.2747 90.0442 24.136 89.5642 24.136C89.1056 24.136 88.7162 24.2693 88.3962 24.536C88.0869 24.8027 87.8949 25.1813 87.8202 25.672L91.2442 25.672ZM100.928 21.976C101.973 21.976 102.805 22.3173 103.424 23C104.053 23.672 104.368 24.6 104.368 25.784L104.368 31L101.648 31L101.648 26.152C101.648 25.5547 101.493 25.0907 101.184 24.76C100.874 24.4293 100.458 24.264 99.9356 24.264C99.4129 24.264 98.9969 24.4293 98.6876 24.76C98.3783 25.0907 98.2236 25.5547 98.2236 26.152L98.2236 31L95.4876 31L95.4876 22.072L98.2236 22.072L98.2236 23.256C98.5009 22.8613 98.8743 22.552 99.3436 22.328C99.8129 22.0933 100.341 21.976 100.928 21.976ZM105.725 26.536C105.725 25.608 105.912 24.7973 106.285 24.104C106.669 23.4107 107.197 22.8773 107.869 22.504C108.552 22.1307 109.33 21.944 110.205 21.944C111.325 21.944 112.258 22.2373 113.005 22.824C113.762 23.4107 114.258 24.2373 114.493 25.304L111.581 25.304C111.336 24.6213 110.861 24.28 110.157 24.28C109.656 24.28 109.256 24.4773 108.957 24.872C108.658 25.256 108.509 25.8107 108.509 26.536C108.509 27.2613 108.658 27.8213 108.957 28.216C109.256 28.6 109.656 28.792 110.157 28.792C110.861 28.792 111.336 28.4507 111.581 27.768L114.493 27.768C114.258 28.8133 113.762 29.6347 113.005 30.232C112.248 30.8293 111.314 31.128 110.205 31.128C109.33 31.128 108.552 30.9413 107.869 30.568C107.197 30.1947 106.669 29.6613 106.285 28.968C105.912 28.2747 105.725 27.464 105.725 26.536ZM124.372 26.392C124.372 26.648 124.356 26.9147 124.324 27.192L118.132 27.192C118.175 27.7467 118.351 28.1733 118.66 28.472C118.98 28.76 119.37 28.904 119.828 28.904C120.511 28.904 120.986 28.616 121.252 28.04L124.164 28.04C124.015 28.6267 123.743 29.1547 123.348 29.624C122.964 30.0933 122.479 30.4613 121.892 30.728C121.306 30.9947 120.65 31.128 119.924 31.128C119.05 31.128 118.271 30.9413 117.588 30.568C116.906 30.1947 116.372 29.6613 115.988 28.968C115.604 28.2747 115.412 27.464 115.412 26.536C115.412 25.608 115.599 24.7973 115.972 24.104C116.356 23.4107 116.89 22.8773 117.572 22.504C118.255 22.1307 119.039 21.944 119.924 21.944C120.788 21.944 121.556 22.1253 122.228 22.488C122.9 22.8507 123.423 23.368 123.796 24.04C124.18 24.712 124.372 25.496 124.372 26.392ZM121.572 25.672C121.572 25.2027 121.412 24.8293 121.092 24.552C120.772 24.2747 120.372 24.136 119.892 24.136C119.434 24.136 119.044 24.2693 118.724 24.536C118.415 24.8027 118.223 25.1813 118.148 25.672L121.572 25.672Z" fill="#20203A"/>
<path d="M133.637 16.5366C133.637 16.3377 133.558 16.1469 133.418 16.0063C133.277 15.8656 133.086 15.7866 132.887 15.7866C132.688 15.7866 132.498 15.8656 132.357 16.0063C132.216 16.1469 132.137 16.3377 132.137 16.5366L132.137 30.5366C132.137 31.3986 132.48 32.2252 133.089 32.8347C133.699 33.4442 134.525 33.7866 135.387 33.7866L149.387 33.7866C149.586 33.7866 149.777 33.7076 149.918 33.567C150.058 33.4263 150.137 33.2355 150.137 33.0366C150.137 32.8377 150.058 32.6469 149.918 32.5063C149.777 32.3656 149.586 32.2866 149.387 32.2866L135.387 32.2866C134.923 32.2866 134.478 32.1022 134.15 31.7741C133.822 31.4459 133.637 31.0007 133.637 30.5366L133.637 16.5366ZM143.887 18.7866C143.688 18.7866 143.498 18.8656 143.357 19.0063C143.216 19.1469 143.137 19.3377 143.137 19.5366C143.137 19.7355 143.216 19.9263 143.357 20.067C143.498 20.2076 143.688 20.2866 143.887 20.2866L147.077 20.2866L142.387 24.9766L140.417 23.0066C140.277 22.8662 140.086 22.7873 139.887 22.7873C139.688 22.7873 139.498 22.8662 139.357 23.0066L135.607 26.7566C135.534 26.8253 135.474 26.9081 135.433 27.0001C135.392 27.0921 135.37 27.1914 135.369 27.2921C135.367 27.3928 135.385 27.4928 135.423 27.5862C135.461 27.6796 135.517 27.7644 135.588 27.8357C135.659 27.9069 135.744 27.963 135.838 28.0007C135.931 28.0385 136.031 28.057 136.132 28.0552C136.232 28.0534 136.332 28.0314 136.424 27.9904C136.516 27.9494 136.599 27.8903 136.667 27.8166L139.887 24.5966L141.857 26.5666C141.998 26.7071 142.188 26.786 142.387 26.786C142.586 26.786 142.777 26.7071 142.917 26.5666L148.139 21.3466L148.139 24.5416C148.139 24.7405 148.218 24.9313 148.359 25.072C148.5 25.2126 148.69 25.2916 148.889 25.2916C149.088 25.2916 149.279 25.2126 149.42 25.072C149.56 24.9313 149.639 24.7405 149.639 24.5416L149.639 19.5366C149.639 19.3377 149.56 19.1469 149.42 19.0063C149.279 18.8656 149.088 18.7866 148.889 18.7866L143.887 18.7866Z" fill="#21213A"/>
</g>
<defs>
<filter id="filter0_d_276_289" x="0" y="0" width="168.152" height="58.4946" filterUnits="userSpaceOnUse" color-interpolation-filters="sRGB">
<feFlood flood-opacity="0" result="BackgroundImageFix"/>
<feColorMatrix in="SourceAlpha" type="matrix" values="0 0 0 0 0 0 0 0 0 0 0 0 0 0 0 0 0 0 127 0" result="hardAlpha"/>
<feOffset dy="4"/>
<feGaussianBlur stdDeviation="2"/>
<feComposite in2="hardAlpha" operator="out"/>
<feColorMatrix type="matrix" values="0 0 0 0 0 0 0 0 0 0 0 0 0 0 0 0 0 0 0.25 0"/>
<feBlend mode="normal" in2="BackgroundImageFix" result="effect1_dropShadow_276_289"/>
<feBlend mode="normal" in="SourceGraphic" in2="effect1_dropShadow_276_289" result="shape"/>
</filter>
</defs>
</svg>
