<svg width="56" height="56" viewBox="0 0 56 56" fill="none" xmlns="http://www.w3.org/2000/svg">
<g clip-path="url(#clip0_223_65)">
<path fill-rule="evenodd" clip-rule="evenodd" d="M4.66699 28.0003C4.66699 15.1133 15.1133 4.66699 28.0003 4.66699C40.8873 4.66699 51.3337 15.1133 51.3337 28.0003C51.3337 40.8873 40.8873 51.3337 28.0003 51.3337C15.1133 51.3337 4.66699 40.8873 4.66699 28.0003ZM30.3337 16.3337C30.3337 15.7148 30.0878 15.1213 29.6502 14.6837C29.2127 14.2462 28.6192 14.0003 28.0003 14.0003C27.3815 14.0003 26.788 14.2462 26.3504 14.6837C25.9128 15.1213 25.667 15.7148 25.667 16.3337V18.667H23.3337C21.7866 18.667 20.3028 19.2816 19.2089 20.3755C18.1149 21.4695 17.5003 22.9532 17.5003 24.5003C17.5003 26.0474 18.1149 27.5312 19.2089 28.6251C20.3028 29.7191 21.7866 30.3337 23.3337 30.3337H32.667C32.9764 30.3337 33.2732 30.4566 33.492 30.6754C33.7107 30.8942 33.8337 31.1909 33.8337 31.5003C33.8337 31.8097 33.7107 32.1065 33.492 32.3253C33.2732 32.5441 32.9764 32.667 32.667 32.667H21.0003C20.3815 32.667 19.788 32.9128 19.3504 33.3504C18.9128 33.788 18.667 34.3815 18.667 35.0003C18.667 35.6192 18.9128 36.2127 19.3504 36.6502C19.788 37.0878 20.3815 37.3337 21.0003 37.3337H25.667V39.667C25.667 40.2858 25.9128 40.8793 26.3504 41.3169C26.788 41.7545 27.3815 42.0003 28.0003 42.0003C28.6192 42.0003 29.2127 41.7545 29.6502 41.3169C30.0878 40.8793 30.3337 40.2858 30.3337 39.667V37.3337H32.667C34.2141 37.3337 35.6978 36.7191 36.7918 35.6251C37.8857 34.5312 38.5003 33.0474 38.5003 31.5003C38.5003 29.9532 37.8857 28.4695 36.7918 27.3755C35.6978 26.2816 34.2141 25.667 32.667 25.667H23.3337C23.0242 25.667 22.7275 25.5441 22.5087 25.3253C22.2899 25.1065 22.167 24.8097 22.167 24.5003C22.167 24.1909 22.2899 23.8942 22.5087 23.6754C22.7275 23.4566 23.0242 23.3337 23.3337 23.3337H35.0003C35.6192 23.3337 36.2127 23.0878 36.6502 22.6502C37.0878 22.2127 37.3337 21.6192 37.3337 21.0003C37.3337 20.3815 37.0878 19.788 36.6502 19.3504C36.2127 18.9128 35.6192 18.667 35.0003 18.667H30.3337V16.3337Z" fill="#FAFAFE"/>
</g>
<defs>
<clipPath id="clip0_223_65">
<rect width="56" height="56" fill="white"/>
</clipPath>
</defs>
</svg>
