<svg width="169" height="59" viewBox="0 0 169 59" fill="none" xmlns="http://www.w3.org/2000/svg">
<g filter="url(#filter0_d_276_89)">
<rect x="4" y="0.489746" width="160" height="50" rx="10" transform="rotate(-0.175437 4 0.489746)" fill="#D5D5D9" fill-opacity="0.25" shape-rendering="crispEdges"/>
<path d="M20.0645 31.2065L20.0645 28.4065C20.0645 27.8565 20.2061 27.3399 20.4895 26.8565C20.7728 26.3732 21.1645 26.0065 21.6645 25.7565C22.5145 25.3232 23.4728 24.9565 24.5395 24.6565C25.6061 24.3565 26.7811 24.2065 28.0645 24.2065C29.3478 24.2065 30.5228 24.3565 31.5895 24.6565C32.6561 24.9565 33.6145 25.3232 34.4645 25.7565C34.9645 26.0065 35.3561 26.3732 35.6395 26.8565C35.9228 27.3399 36.0645 27.8565 36.0645 28.4065L36.0645 31.2065L20.0645 31.2065ZM28.0645 23.2065C26.9645 23.2065 26.0228 22.8149 25.2395 22.0315C24.4561 21.2482 24.0645 20.3065 24.0645 19.2065L23.3145 19.2065L23.3145 18.2065L24.0645 18.2065C24.0645 17.4565 24.2478 16.7815 24.6145 16.1815C24.9811 15.5815 25.4645 15.1065 26.0645 14.7565L26.0645 16.2065L27.0645 16.2065L27.0645 14.3565C27.2145 14.3065 27.3728 14.2692 27.5395 14.2445C27.7061 14.2199 27.8811 14.2072 28.0645 14.2065C28.2478 14.2065 28.4228 14.2192 28.5895 14.2445C28.7561 14.2699 28.9145 14.3072 29.0645 14.3565L29.0645 16.2065L30.0645 16.2065L30.0645 14.7565C30.6645 15.1065 31.1478 15.5815 31.5145 16.1815C31.8811 16.7815 32.0645 17.4565 32.0645 18.2065L32.8145 18.2065L32.8145 19.2065L32.0645 19.2065C32.0645 20.3065 31.6728 21.2482 30.8895 22.0315C30.1061 22.8149 29.1645 23.2065 28.0645 23.2065ZM28.0645 21.2065C28.6145 21.2065 29.0855 21.0109 29.4775 20.6195C29.8695 20.2282 30.0651 19.7572 30.0645 19.2065L26.0645 19.2065C26.0645 19.7565 26.2605 20.2275 26.6525 20.6195C27.0445 21.0115 27.5151 21.2072 28.0645 21.2065ZM35.5645 25.2065L35.4145 24.4565C35.3145 24.4232 35.2188 24.3859 35.1275 24.3445C35.0361 24.3032 34.9485 24.2405 34.8645 24.1565L34.1645 24.4065L33.6645 23.5065L34.2145 23.0065L34.2145 22.4065L33.6645 21.9065L34.1645 21.0065L34.8645 21.2565C34.9311 21.1899 35.0145 21.1315 35.1145 21.0815C35.2145 21.0315 35.3145 20.9899 35.4145 20.9565L35.5645 20.2065L36.5645 20.2065L36.7145 20.9565C36.8145 20.9899 36.9145 21.0315 37.0145 21.0815C37.1145 21.1315 37.1978 21.1899 37.2645 21.2565L37.9645 21.0065L38.4645 21.9065L37.9145 22.4065L37.9145 23.0065L38.4645 23.5065L37.9645 24.4065L37.2645 24.1565C37.1811 24.2399 37.0938 24.3025 37.0025 24.3445C36.9111 24.3865 36.8151 24.4239 36.7145 24.4565L36.5645 25.2065L35.5645 25.2065ZM36.0645 23.4565C36.2645 23.4565 36.4395 23.3815 36.5895 23.2315C36.7395 23.0815 36.8145 22.9065 36.8145 22.7065C36.8145 22.5065 36.7395 22.3315 36.5895 22.1815C36.4395 22.0315 36.2645 21.9565 36.0645 21.9565C35.8645 21.9565 35.6895 22.0315 35.5395 22.1815C35.3895 22.3315 35.3145 22.5065 35.3145 22.7065C35.3145 22.9065 35.3895 23.0815 35.5395 23.2315C35.6895 23.3815 35.8645 23.4565 36.0645 23.4565ZM37.8645 20.2065L37.6645 19.1565C37.5145 19.1065 37.3771 19.0442 37.2525 18.9695C37.1278 18.8949 37.0151 18.8072 36.9145 18.7065L35.8645 19.0565L35.1645 17.8565L36.0145 17.1065C35.9811 17.0232 35.9645 16.9565 35.9645 16.9065L35.9645 16.5065C35.9645 16.4565 35.9811 16.3899 36.0145 16.3065L35.1645 15.5565L35.8645 14.3565L36.9145 14.7065C37.0145 14.6065 37.1271 14.5189 37.2525 14.4435C37.3778 14.3682 37.5151 14.3059 37.6645 14.2565L37.8645 13.2065L39.2645 13.2065L39.4645 14.2565C39.6145 14.3065 39.7521 14.3692 39.8775 14.4445C40.0028 14.5199 40.1151 14.6072 40.2145 14.7065L41.2645 14.3565L41.9645 15.5565L41.1145 16.3065C41.1478 16.3899 41.1645 16.4565 41.1645 16.5065L41.1645 16.9065C41.1645 16.9565 41.1478 17.0232 41.1145 17.1065L41.9645 17.8565L41.2645 19.0565L40.2145 18.7065C40.1145 18.8065 40.0021 18.8942 39.8775 18.9695C39.7528 19.0449 39.6151 19.1072 39.4645 19.1565L39.2645 20.2065L37.8645 20.2065ZM38.5645 17.9565C38.9145 17.9565 39.2105 17.8355 39.4525 17.5935C39.6945 17.3515 39.8151 17.0559 39.8145 16.7065C39.8145 16.3565 39.6935 16.0605 39.4515 15.8185C39.2095 15.5765 38.9138 15.4559 38.5645 15.4565C38.2145 15.4565 37.9185 15.5775 37.6765 15.8195C37.4345 16.0615 37.3138 16.3572 37.3145 16.7065C37.3145 17.0565 37.4355 17.3525 37.6775 17.5945C37.9195 17.8365 38.2151 17.9572 38.5645 17.9565Z" fill="#21213A"/>
<path d="M53.0376 18.96L53.0376 21.232L56.7016 21.232L56.7016 23.344L53.0376 23.344L53.0376 25.808L57.1816 25.808L57.1816 28L50.3016 28L50.3016 16.768L57.1816 16.768L57.1816 18.96L53.0376 18.96ZM64.3978 18.976C65.4432 18.976 66.2752 19.3173 66.8938 20C67.5232 20.672 67.8378 21.6 67.8378 22.784L67.8378 28L65.1178 28L65.1178 23.152C65.1178 22.5547 64.9632 22.0907 64.6538 21.76C64.3445 21.4293 63.9285 21.264 63.4058 21.264C62.8832 21.264 62.4672 21.4293 62.1578 21.76C61.8485 22.0907 61.6938 22.5547 61.6938 23.152L61.6938 28L58.9578 28L58.9578 19.072L61.6938 19.072L61.6938 20.256C61.9712 19.8613 62.3445 19.552 62.8138 19.328C63.2832 19.0933 63.8112 18.976 64.3978 18.976ZM73.1311 18.944C73.7604 18.944 74.3097 19.072 74.7791 19.328C75.2591 19.584 75.6271 19.92 75.8831 20.336L75.8831 19.072L78.6191 19.072L78.6191 27.984C78.6191 28.8053 78.4537 29.5467 78.1231 30.208C77.8031 30.88 77.3071 31.4133 76.6351 31.808C75.9737 32.2027 75.1471 32.4 74.1551 32.4C72.8324 32.4 71.7604 32.0853 70.9391 31.456C70.1177 30.8373 69.6484 29.9947 69.5311 28.928L72.2351 28.928C72.3204 29.2693 72.5231 29.536 72.8431 29.728C73.1631 29.9307 73.5577 30.032 74.0271 30.032C74.5924 30.032 75.0404 29.8667 75.3711 29.536C75.7124 29.216 75.8831 28.6987 75.8831 27.984L75.8831 26.72C75.6164 27.136 75.2484 27.4773 74.7791 27.744C74.3097 28 73.7604 28.128 73.1311 28.128C72.3951 28.128 71.7284 27.9413 71.1311 27.568C70.5337 27.184 70.0591 26.6453 69.7071 25.952C69.3657 25.248 69.1951 24.4373 69.1951 23.52C69.1951 22.6027 69.3657 21.7973 69.7071 21.104C70.0591 20.4107 70.5337 19.8773 71.1311 19.504C71.7284 19.1307 72.3951 18.944 73.1311 18.944ZM75.8831 23.536C75.8831 22.8533 75.6911 22.3147 75.3071 21.92C74.9337 21.5253 74.4751 21.328 73.9311 21.328C73.3871 21.328 72.9231 21.5253 72.5391 21.92C72.1657 22.304 71.9791 22.8373 71.9791 23.52C71.9791 24.2027 72.1657 24.7467 72.5391 25.152C72.9231 25.5467 73.3871 25.744 73.9311 25.744C74.4751 25.744 74.9337 25.5467 75.3071 25.152C75.6911 24.7573 75.8831 24.2187 75.8831 23.536ZM81.9744 18.144C81.4944 18.144 81.0998 18.0053 80.7904 17.728C80.4918 17.44 80.3424 17.088 80.3424 16.672C80.3424 16.2453 80.4918 15.8933 80.7904 15.616C81.0998 15.328 81.4944 15.184 81.9744 15.184C82.4438 15.184 82.8278 15.328 83.1264 15.616C83.4358 15.8933 83.5904 16.2453 83.5904 16.672C83.5904 17.088 83.4358 17.44 83.1264 17.728C82.8278 18.0053 82.4438 18.144 81.9744 18.144ZM83.3344 19.072L83.3344 28L80.5984 28L80.5984 19.072L83.3344 19.072ZM90.7572 18.976C91.8025 18.976 92.6345 19.3173 93.2532 20C93.8825 20.672 94.1972 21.6 94.1972 22.784L94.1972 28L91.4772 28L91.4772 23.152C91.4772 22.5547 91.3225 22.0907 91.0132 21.76C90.7039 21.4293 90.2879 21.264 89.7652 21.264C89.2425 21.264 88.8265 21.4293 88.5172 21.76C88.2079 22.0907 88.0532 22.5547 88.0532 23.152L88.0532 28L85.3172 28L85.3172 19.072L88.0532 19.072L88.0532 20.256C88.3305 19.8613 88.7039 19.552 89.1732 19.328C89.6425 19.0933 90.1705 18.976 90.7572 18.976ZM104.514 23.392C104.514 23.648 104.498 23.9147 104.466 24.192L98.2744 24.192C98.3171 24.7467 98.4931 25.1733 98.8024 25.472C99.1224 25.76 99.5118 25.904 99.9704 25.904C100.653 25.904 101.128 25.616 101.394 25.04L104.306 25.04C104.157 25.6267 103.885 26.1547 103.49 26.624C103.106 27.0933 102.621 27.4613 102.034 27.728C101.448 27.9947 100.792 28.128 100.066 28.128C99.1918 28.128 98.4131 27.9413 97.7304 27.568C97.0478 27.1947 96.5144 26.6613 96.1304 25.968C95.7464 25.2747 95.5544 24.464 95.5544 23.536C95.5544 22.608 95.7411 21.7973 96.1144 21.104C96.4984 20.4107 97.0318 19.8773 97.7144 19.504C98.3971 19.1307 99.1811 18.944 100.066 18.944C100.93 18.944 101.698 19.1253 102.37 19.488C103.042 19.8507 103.565 20.368 103.938 21.04C104.322 21.712 104.514 22.496 104.514 23.392ZM101.714 22.672C101.714 22.2027 101.554 21.8293 101.234 21.552C100.914 21.2747 100.514 21.136 100.034 21.136C99.5758 21.136 99.1864 21.2693 98.8664 21.536C98.5571 21.8027 98.3651 22.1813 98.2904 22.672L101.714 22.672ZM114.374 23.392C114.374 23.648 114.358 23.9147 114.326 24.192L108.134 24.192C108.176 24.7467 108.352 25.1733 108.662 25.472C108.982 25.76 109.371 25.904 109.83 25.904C110.512 25.904 110.987 25.616 111.254 25.04L114.166 25.04C114.016 25.6267 113.744 26.1547 113.35 26.624C112.966 27.0933 112.48 27.4613 111.894 27.728C111.307 27.9947 110.651 28.128 109.926 28.128C109.051 28.128 108.272 27.9413 107.59 27.568C106.907 27.1947 106.374 26.6613 105.99 25.968C105.606 25.2747 105.414 24.464 105.414 23.536C105.414 22.608 105.6 21.7973 105.974 21.104C106.358 20.4107 106.891 19.8773 107.574 19.504C108.256 19.1307 109.04 18.944 109.926 18.944C110.79 18.944 111.558 19.1253 112.23 19.488C112.902 19.8507 113.424 20.368 113.798 21.04C114.182 21.712 114.374 22.496 114.374 23.392ZM111.574 22.672C111.574 22.2027 111.414 21.8293 111.094 21.552C110.774 21.2747 110.374 21.136 109.894 21.136C109.435 21.136 109.046 21.2693 108.726 21.536C108.416 21.8027 108.224 22.1813 108.15 22.672L111.574 22.672ZM118.553 20.56C118.873 20.0693 119.273 19.6853 119.753 19.408C120.233 19.12 120.767 18.976 121.353 18.976L121.353 21.872L120.601 21.872C119.919 21.872 119.407 22.0213 119.065 22.32C118.724 22.608 118.553 23.12 118.553 23.856L118.553 28L115.817 28L115.817 19.072L118.553 19.072L118.553 20.56ZM124.037 18.144C123.557 18.144 123.162 18.0053 122.853 17.728C122.554 17.44 122.405 17.088 122.405 16.672C122.405 16.2453 122.554 15.8933 122.853 15.616C123.162 15.328 123.557 15.184 124.037 15.184C124.506 15.184 124.89 15.328 125.189 15.616C125.498 15.8933 125.653 16.2453 125.653 16.672C125.653 17.088 125.498 17.44 125.189 17.728C124.89 18.0053 124.506 18.144 124.037 18.144ZM125.397 19.072L125.397 28L122.661 28L122.661 19.072L125.397 19.072ZM132.82 18.976C133.865 18.976 134.697 19.3173 135.316 20C135.945 20.672 136.26 21.6 136.26 22.784L136.26 28L133.54 28L133.54 23.152C133.54 22.5547 133.385 22.0907 133.076 21.76C132.766 21.4293 132.35 21.264 131.828 21.264C131.305 21.264 130.889 21.4293 130.58 21.76C130.27 22.0907 130.116 22.5547 130.116 23.152L130.116 28L127.38 28L127.38 19.072L130.116 19.072L130.116 20.256C130.393 19.8613 130.766 19.552 131.236 19.328C131.705 19.0933 132.233 18.976 132.82 18.976ZM141.553 18.944C142.182 18.944 142.732 19.072 143.201 19.328C143.681 19.584 144.049 19.92 144.305 20.336L144.305 19.072L147.041 19.072L147.041 27.984C147.041 28.8053 146.876 29.5467 146.545 30.208C146.225 30.88 145.729 31.4133 145.057 31.808C144.396 32.2027 143.569 32.4 142.577 32.4C141.254 32.4 140.182 32.0853 139.361 31.456C138.54 30.8373 138.07 29.9947 137.953 28.928L140.657 28.928C140.742 29.2693 140.945 29.536 141.265 29.728C141.585 29.9307 141.98 30.032 142.449 30.032C143.014 30.032 143.462 29.8667 143.793 29.536C144.134 29.216 144.305 28.6987 144.305 27.984L144.305 26.72C144.038 27.136 143.67 27.4773 143.201 27.744C142.732 28 142.182 28.128 141.553 28.128C140.817 28.128 140.15 27.9413 139.553 27.568C138.956 27.184 138.481 26.6453 138.129 25.952C137.788 25.248 137.617 24.4373 137.617 23.52C137.617 22.6027 137.788 21.7973 138.129 21.104C138.481 20.4107 138.956 19.8773 139.553 19.504C140.15 19.1307 140.817 18.944 141.553 18.944ZM144.305 23.536C144.305 22.8533 144.113 22.3147 143.729 21.92C143.356 21.5253 142.897 21.328 142.353 21.328C141.809 21.328 141.345 21.5253 140.961 21.92C140.588 22.304 140.401 22.8373 140.401 23.52C140.401 24.2027 140.588 24.7467 140.961 25.152C141.345 25.5467 141.809 25.744 142.353 25.744C142.897 25.744 143.356 25.5467 143.729 25.152C144.113 24.7573 144.305 24.2187 144.305 23.536Z" fill="#1D1D37"/>
</g>
<defs>
<filter id="filter0_d_276_89" x="0" y="0" width="168.152" height="58.4897" filterUnits="userSpaceOnUse" color-interpolation-filters="sRGB">
<feFlood flood-opacity="0" result="BackgroundImageFix"/>
<feColorMatrix in="SourceAlpha" type="matrix" values="0 0 0 0 0 0 0 0 0 0 0 0 0 0 0 0 0 0 127 0" result="hardAlpha"/>
<feOffset dy="4"/>
<feGaussianBlur stdDeviation="2"/>
<feComposite in2="hardAlpha" operator="out"/>
<feColorMatrix type="matrix" values="0 0 0 0 0 0 0 0 0 0 0 0 0 0 0 0 0 0 0.25 0"/>
<feBlend mode="normal" in2="BackgroundImageFix" result="effect1_dropShadow_276_89"/>
<feBlend mode="normal" in="SourceGraphic" in2="effect1_dropShadow_276_89" result="shape"/>
</filter>
</defs>
</svg>
