<svg width="65" height="65" viewBox="0 0 65 65" fill="none" xmlns="http://www.w3.org/2000/svg">
<path d="M32.5 65C23.8805 65 15.614 61.5759 9.51903 55.481C3.4241 49.386 0 41.1195 0 32.5C0 23.8805 3.4241 15.614 9.51903 9.51903C15.614 3.4241 23.8805 0 32.5 0C41.1195 0 49.386 3.4241 55.481 9.51903C61.5759 15.614 65 23.8805 65 32.5C65 41.1195 61.5759 49.386 55.481 55.481C49.386 61.5759 41.1195 65 32.5 65ZM57.6875 39C58.7869 34.7364 58.7869 30.2636 57.6875 26H45.2725C45.5737 30.3281 45.5737 34.6719 45.2725 39H57.6875ZM55.0225 45.5H44.5575C44.0131 49.4174 42.9757 53.2503 41.47 56.9075C47.1793 54.8014 51.9732 50.7663 55.0225 45.5ZM26.26 39H38.74C39.0927 34.6738 39.0927 30.3262 38.74 26H26.26C25.9073 30.3262 25.9073 34.6738 26.26 39ZM27.0725 45.5C28.405 53.3 30.745 58.5 32.5 58.5C34.255 58.5 36.595 53.3 37.9275 45.5H27.0725ZM7.3125 39H19.7275C19.4263 34.6719 19.4263 30.3281 19.7275 26H7.3125C6.21311 30.2636 6.21311 34.7364 7.3125 39ZM9.9775 45.5C13.0268 50.7663 17.8207 54.8014 23.53 56.9075C22.165 53.7875 21.125 49.8875 20.4425 45.5H9.9775ZM55.0225 19.5C51.9732 14.2337 47.1793 10.1986 41.47 8.0925C42.835 11.2125 43.875 15.1125 44.5575 19.5H55.0225ZM27.0725 19.5H37.9275C36.595 11.7 34.255 6.5 32.5 6.5C30.745 6.5 28.405 11.7 27.0725 19.5ZM9.9775 19.5H20.4425C21.0925 15.1125 22.165 11.2125 23.53 8.0925C17.8207 10.1986 13.0268 14.2337 9.9775 19.5Z" fill="#FAFAFE"/>
</svg>
