<svg width="56" height="48" viewBox="0 0 56 48" fill="none" xmlns="http://www.w3.org/2000/svg">
<path d="M28 24L7.112 15.06L8.4 48H2.8L4.144 13.77L0 12L28 0L56 12L28 24ZM28 9C26.46 9 25.2 9.66 25.2 10.5C25.2 11.34 26.46 12 28 12C29.54 12 30.8 11.34 30.8 10.5C30.8 9.66 29.54 9 28 9ZM28 27L43.596 20.31C45.584 23.13 46.956 26.52 47.404 30.21C46.564 30.09 45.696 30 44.8 30C37.66 30 31.416 34.11 28 40.23C26.2661 37.1123 23.8063 34.5304 20.8613 32.7371C17.9164 30.9439 14.5873 30.0007 11.2 30C10.304 30 9.436 30.09 8.596 30.21C9.044 26.52 10.416 23.13 12.404 20.31L28 27Z" fill="#FAFAFE"/>
</svg>
