<svg width="16" height="16" viewBox="0 0 16 16" fill="none" xmlns="http://www.w3.org/2000/svg">
<path d="M7.99965 3.89965C7.18875 3.89965 6.39605 4.14011 5.72181 4.59062C5.04757 5.04114 4.52206 5.68147 4.21174 6.43065C3.90142 7.17982 3.82023 8.0042 3.97843 8.79952C4.13663 9.59484 4.52712 10.3254 5.10051 10.8988C5.67391 11.4722 6.40446 11.8627 7.19978 12.0209C7.9951 12.1791 8.81947 12.0979 9.56865 11.7876C10.3178 11.4772 10.9582 10.9517 11.4087 10.2775C11.8592 9.60324 12.0996 8.81055 12.0996 7.99965C12.101 7.46086 11.9958 6.92712 11.7902 6.42909C11.5847 5.93106 11.2827 5.47855 10.9017 5.09757C10.5207 4.71659 10.0682 4.41463 9.57021 4.20906C9.07218 4.00348 8.53844 3.89833 7.99965 3.89965ZM7.99965 10.6696C7.47157 10.6696 6.95536 10.5131 6.51628 10.2197C6.0772 9.92629 5.73498 9.50929 5.53289 9.02141C5.3308 8.53353 5.27793 7.99669 5.38095 7.47876C5.48397 6.96083 5.73827 6.48508 6.11167 6.11167C6.48508 5.73827 6.96083 5.48397 7.47876 5.38095C7.99669 5.27793 8.53353 5.3308 9.02141 5.53289C9.50929 5.73498 9.92629 6.0772 10.2197 6.51628C10.5131 6.95536 10.6696 7.47157 10.6696 7.99965C10.6696 8.70778 10.3883 9.3869 9.88762 9.88762C9.3869 10.3883 8.70778 10.6696 7.99965 10.6696ZM13.2296 3.72965C13.2296 3.92743 13.171 4.12077 13.0611 4.28522C12.9512 4.44967 12.7951 4.57784 12.6123 4.65353C12.4296 4.72922 12.2285 4.74902 12.0346 4.71043C11.8406 4.67185 11.6624 4.57661 11.5225 4.43676C11.3827 4.2969 11.2874 4.11872 11.2489 3.92474C11.2103 3.73076 11.2301 3.52969 11.3058 3.34697C11.3815 3.16424 11.5096 3.00806 11.6741 2.89818C11.8385 2.7883 12.0319 2.72965 12.2296 2.72965C12.4949 2.72965 12.7492 2.83501 12.9368 3.02254C13.1243 3.21008 13.2296 3.46443 13.2296 3.72965ZM15.9396 4.72965C15.9687 3.48647 15.505 2.28224 14.6496 1.37965C13.7519 0.513336 12.5471 0.0386054 11.2996 0.0596484C9.99965 -0.000351563 5.99965 -0.000351563 4.69965 0.0596484C3.45685 0.0327376 2.25342 0.496149 1.34965 1.34965C0.494282 2.25224 0.0305624 3.45647 0.0596484 4.69965C-0.000351563 5.99965 -0.000351563 9.99965 0.0596484 11.2996C0.0305624 12.5428 0.494282 13.7471 1.34965 14.6496C2.25342 15.5031 3.45685 15.9666 4.69965 15.9396C6.01965 16.0196 9.97965 16.0196 11.2996 15.9396C12.5428 15.9687 13.7471 15.505 14.6496 14.6496C15.505 13.7471 15.9687 12.5428 15.9396 11.2996C15.9996 9.99965 15.9996 5.99965 15.9396 4.69965V4.72965ZM14.2396 12.7296C14.1039 13.0736 13.8989 13.386 13.6374 13.6474C13.376 13.9089 13.0636 14.1139 12.7196 14.2496C11.1672 14.5635 9.58021 14.6711 7.99965 14.5696C6.42241 14.6713 4.83865 14.5637 3.28965 14.2496C2.94571 14.1139 2.63332 13.9089 2.37186 13.6474C2.11039 13.386 1.90542 13.0736 1.76965 12.7296C1.34965 11.6696 1.43965 9.16965 1.43965 8.00965C1.43965 6.84965 1.34965 4.33965 1.76965 3.28965C1.90159 2.94232 2.1051 2.62661 2.36696 2.36302C2.62882 2.09944 2.94319 1.89387 3.28965 1.75965C4.83865 1.44563 6.42241 1.33803 7.99965 1.43965C9.58021 1.3382 11.1672 1.44579 12.7196 1.75965C13.0636 1.89542 13.376 2.10039 13.6374 2.36186C13.8989 2.62333 14.1039 2.93571 14.2396 3.27965C14.6596 4.33965 14.5596 6.83965 14.5596 7.99965C14.5596 9.15965 14.6596 11.6696 14.2396 12.7196V12.7296Z" fill="#FAFAFE"/>
</svg>
