<svg width="28" height="28" viewBox="0 0 28 28" fill="none" xmlns="http://www.w3.org/2000/svg">
<g id="Frame 217">
<rect width="28" height="28" rx="14" fill="#02021F"/>
<g id="Clip path group">
<mask id="mask0_2_2664" style="mask-type:luminance" maskUnits="userSpaceOnUse" x="8" y="8" width="12" height="12">
<g id="akarIconsBehanceFill0">
<path id="Vector" d="M8 8H20V20H8V8Z" fill="white"/>
</g>
</mask>
<g mask="url(#mask0_2_2664)">
<g id="Group">
<path id="Vector_2" d="M19 11.5H15.5V10.5H19V11.5ZM19.863 16.5C19.642 17.1485 18.8485 18 17.3125 18C15.7755 18 14.5305 17.1355 14.5305 15.1625C14.5305 13.2075 15.693 12.2025 17.2635 12.2025C18.8045 12.2025 19.7455 13.0935 19.951 14.4155C19.99 14.6685 20.0055 15.0095 19.9985 15.4855H15.985C16.05 17.091 17.7265 17.1415 18.279 16.5H19.863ZM16.02 14.5H18.5025C18.45 13.7265 17.9345 13.3905 17.264 13.3905C16.531 13.3905 16.1255 13.7745 16.02 14.5ZM11.233 17.994H8V10.5105H11.4765C14.2145 10.551 14.2665 13.2325 12.8365 13.9635C14.567 14.5935 14.625 17.994 11.233 17.994ZM9.5 13.5H11.292C12.546 13.5 12.745 12 11.136 12H9.5V13.5ZM11.1955 15H9.5V16.508H11.1705C12.698 16.508 12.6045 15 11.1955 15Z" fill="#FFFAFB"/>
</g>
</g>
</g>
</g>
</svg>
