<svg width="28" height="28" viewBox="0 0 28 28" fill="none" xmlns="http://www.w3.org/2000/svg">
<g id="Frame 216">
<rect width="28" height="28" rx="14" fill="#02021F"/>
<path id="Vector" d="M18.6667 8H9.33333C8.6 8 8 8.6 8 9.33333V18.6667C8 19.4007 8.6 20 9.33333 20H18.6667C19.4 20 20 19.4007 20 18.6667V9.33333C20 8.6 19.4 8 18.6667 8ZM13.9893 17.682C14.9686 17.6818 15.9076 17.2927 16.6 16.6002C17.2924 15.9077 17.6813 14.9686 17.6813 13.9893C17.6813 13.764 17.6527 13.5467 17.6127 13.3333H18.6667V18.144C18.6667 18.2046 18.6547 18.2646 18.6315 18.3205C18.6082 18.3764 18.5742 18.4272 18.5312 18.47C18.4883 18.5127 18.4374 18.5466 18.3813 18.5696C18.3253 18.5926 18.2652 18.6043 18.2047 18.604H9.79533C9.73476 18.6043 9.67473 18.5926 9.61868 18.5696C9.56264 18.5466 9.5117 18.5127 9.46877 18.47C9.42584 18.4272 9.39178 18.3764 9.36854 18.3205C9.3453 18.2646 9.33333 18.2046 9.33333 18.144V13.3333H10.366C10.3253 13.5467 10.2967 13.764 10.2967 13.9893C10.2968 14.9686 10.6859 15.9078 11.3784 16.6002C12.0709 17.2927 13.01 17.6818 13.9893 17.682ZM11.682 13.9893C11.682 13.6863 11.7417 13.3863 11.8576 13.1064C11.9736 12.8264 12.1435 12.5721 12.3578 12.3578C12.5721 12.1435 12.8264 11.9736 13.1064 11.8576C13.3863 11.7417 13.6863 11.682 13.9893 11.682C14.2923 11.682 14.5924 11.7417 14.8723 11.8576C15.1523 11.9736 15.4066 12.1435 15.6209 12.3578C15.8351 12.5721 16.0051 12.8264 16.121 13.1064C16.237 13.3863 16.2967 13.6863 16.2967 13.9893C16.2967 14.6013 16.0536 15.1882 15.6209 15.6209C15.1882 16.0536 14.6013 16.2967 13.9893 16.2967C13.3774 16.2967 12.7905 16.0536 12.3578 15.6209C11.9251 15.1882 11.682 14.6013 11.682 13.9893ZM18.2047 11.3333H17.128C17.0058 11.333 16.8886 11.2843 16.8022 11.1978C16.7157 11.1114 16.667 10.9942 16.6667 10.872V9.794C16.6667 9.53933 16.8733 9.33333 17.1273 9.33333H18.204C18.46 9.33333 18.6667 9.53933 18.6667 9.794V10.8713C18.6667 11.1253 18.46 11.3333 18.2047 11.3333Z" fill="#D9D9D9"/>
</g>
</svg>
