<svg width="28" height="28" viewBox="0 0 28 28" fill="none" xmlns="http://www.w3.org/2000/svg">
<g id="Frame 215">
<rect width="28" height="28" rx="14" fill="#02021F"/>
<path id="Vector" d="M18.7713 10.9872C18.7765 11.1172 18.7785 11.2488 18.7785 11.3788C18.7785 15.3836 16.3022 20 11.7741 20C10.383 20 9.08978 19.4984 8 18.638C8.64459 18.734 9.29823 18.6726 9.92355 18.4575C10.5489 18.2424 11.1336 17.8778 11.6443 17.3844C11.1307 17.3725 10.6329 17.1633 10.2206 16.7862C9.80834 16.409 9.50211 15.8827 9.34478 15.2809C9.71395 15.3659 10.0939 15.348 10.4567 15.2287C9.89953 15.0897 9.39852 14.7178 9.03862 14.1762C8.67871 13.6346 8.48205 12.9565 8.48196 12.2568V12.2191C8.82382 12.4531 9.20617 12.5833 9.59717 12.5987C9.07535 12.1706 8.70596 11.5136 8.5644 10.7617C8.42284 10.0099 8.51978 9.21987 8.83543 8.55297C9.45356 9.48914 10.2248 10.2548 11.099 10.8003C11.9733 11.3458 12.931 11.6588 13.91 11.7191C13.8676 11.4925 13.8464 11.2606 13.8467 11.0281C13.8467 10.6304 13.9104 10.2365 14.0341 9.86911C14.1578 9.50167 14.3391 9.16782 14.5677 8.88663C14.7962 8.60543 15.0676 8.3824 15.3662 8.23027C15.6648 8.07814 15.9849 7.9999 16.308 8C16.6449 7.99933 16.9782 8.08382 17.2874 8.24825C17.5966 8.41268 17.875 8.65353 18.1054 8.95586C18.6566 8.82159 19.1852 8.573 19.6687 8.22071C19.4848 8.92232 19.1001 9.51784 18.5861 9.89647C19.0741 9.82528 19.5507 9.66459 20 9.41975C19.6699 10.0284 19.2537 10.5593 18.7713 10.9872Z" fill="#D9D9D9"/>
</g>
</svg>
