<svg width="28" height="28" viewBox="0 0 28 28" fill="none" xmlns="http://www.w3.org/2000/svg">
<g id="Frame 217">
<rect width="28" height="28" rx="14" fill="#02021F"/>
<path id="Vector" d="M11.5 10.5C11.5 11.031 11.145 11.488 10.4995 11.488C9.892 11.488 9.5 11.057 9.5 10.526C9.5 9.981 9.88 9.5 10.5 9.5C11.12 9.5 11.488 9.955 11.5 10.5ZM9.5 18.5V12H11.5V18.5H9.5ZM12.5 14.222C12.5 13.4495 12.4745 12.804 12.449 12.2465H14.246L14.335 13.108H14.373C14.626 12.7025 15.246 12.108 16.284 12.108C17.55 12.108 18.5 12.9555 18.5 14.779V18.5H16.5V15.0695C16.5 14.2725 16.1965 13.6645 15.5 13.6645C14.969 13.6645 14.703 14.0945 14.5635 14.449C14.5125 14.576 14.5 14.753 14.5 14.9305V18.5H12.5V14.222Z" fill="#D9D9D9"/>
</g>
</svg>
