<svg width="65" height="47" viewBox="0 0 65 47" fill="none" xmlns="http://www.w3.org/2000/svg">
<path d="M0 46.5212V41.1045H10.8333V38.3962C9.34375 38.3962 8.06858 37.8658 7.00781 36.805C5.94705 35.7443 5.41667 34.4691 5.41667 32.9795V5.89616C5.41667 4.40658 5.94705 3.1314 7.00781 2.07064C8.06858 1.00987 9.34375 0.479492 10.8333 0.479492H54.1667C55.6562 0.479492 56.9314 1.00987 57.9922 2.07064C59.053 3.1314 59.5833 4.40658 59.5833 5.89616V32.9795C59.5833 34.4691 59.053 35.7443 57.9922 36.805C56.9314 37.8658 55.6562 38.3962 54.1667 38.3962V41.1045H65V46.5212H0ZM10.8333 32.9795H54.1667V5.89616H10.8333V32.9795Z" fill="#FFFDFD"/>
</svg>
