<?xml version="1.0" encoding="UTF-8"?>
<svg viewBox="0 0 24 24" xmlns="http://www.w3.org/2000/svg">
<path d="m18.44 3.0596h-12.88c-0.66247 0.00185-1.2973 0.26583-1.7657 0.73427-0.46844 0.46845-0.73242 1.1033-0.73427 1.7657v12.88c0.00185 0.6624 0.26583 1.2973 0.73427 1.7657 0.46845 0.4684 1.1033 0.7324 1.7657 0.7343h12.88c0.663 0 1.2989-0.2634 1.7677-0.7323 0.4689-0.4688 0.7323-1.1047 0.7323-1.7677v-12.88c0-0.66304-0.2634-1.2989-0.7323-1.7678-0.4688-0.46884-1.1047-0.73223-1.7677-0.73223zm1.5 15.38c-0.0029 0.3969-0.1619 0.7768-0.4426 1.0574-0.2806 0.2807-0.6605 0.4397-1.0574 0.4426h-12.88c-0.39693-0.0029-0.77679-0.1619-1.0575-0.4426-0.28068-0.2806-0.43964-0.6605-0.44252-1.0574v-12.88c0.00288-0.39693 0.16184-0.77679 0.44252-1.0575 0.28069-0.28068 0.66055-0.43964 1.0575-0.44252h12.88c0.3969 0.00288 0.7768 0.16184 1.0574 0.44252 0.2807 0.28069 0.4397 0.66055 0.4426 1.0575v12.88z" fill="#FAFAFE"/>
<path d="m6.376 10.748c0-0.2652 0.10535-0.5195 0.29289-0.7071 0.18754-0.1875 0.44189-0.29285 0.70711-0.29285 0.26521 0 0.51957 0.10535 0.7071 0.29285 0.18754 0.1876 0.2929 0.4419 0.2929 0.7071v6.5c0 0.2653-0.10536 0.5196-0.2929 0.7072-0.18753 0.1875-0.44189 0.2928-0.7071 0.2928-0.26522 0-0.51957-0.1053-0.70711-0.2928-0.18754-0.1876-0.29289-0.4419-0.29289-0.7072v-6.5z" fill="#FAFAFE"/>
<path d="m7.376 7.7441c0.55228 0 1-0.44771 1-1 0-0.55228-0.44772-1-1-1-0.55229 0-1 0.44772-1 1 0 0.55229 0.44771 1 1 1z" fill="#FAFAFE"/>
<path d="m17.62 13.37v3.88c0 0.2652-0.1053 0.5195-0.2928 0.7071-0.1876 0.1875-0.4419 0.2929-0.7072 0.2929-0.2652 0-0.5195-0.1054-0.7071-0.2929-0.1875-0.1876-0.2929-0.4419-0.2929-0.7071v-3.88c0-0.4284-0.1701-0.8392-0.473-1.142-0.3028-0.3029-0.7136-0.473-1.142-0.473-0.4283 0-0.8391 0.1701-1.1419 0.473-0.3029 0.3028-0.4731 0.7136-0.4731 1.142v3.88c0 0.2652-0.1053 0.5195-0.2928 0.7071-0.1876 0.1875-0.4419 0.2929-0.7072 0.2929-0.2652 0-0.5195-0.1054-0.7071-0.2929-0.1875-0.1876-0.2929-0.4419-0.2929-0.7071v-6.5c0.0042-0.264 0.1109-0.5159 0.2975-0.7026 0.1867-0.18664 0.4386-0.29332 0.7025-0.29745 0.1694-0.00464 0.3369 0.03659 0.4848 0.11933 0.1478 0.08273 0.2706 0.20392 0.3552 0.35072 0.5499-0.31201 1.172-0.47409 1.8041-0.47005 0.6322 0.00404 1.2522 0.17405 1.798 0.49305 0.5457 0.3189 0.9982 0.7757 1.312 1.3244 0.3137 0.5488 0.4779 1.1704 0.4759 1.8026z" fill="#FAFAFE"/>
</svg>
