<svg width="39" height="50" viewBox="0 0 39 50" fill="none" xmlns="http://www.w3.org/2000/svg">
<path d="M19.25 0.5C14.1465 0.506021 9.25363 2.53607 5.64486 6.14484C2.03609 9.75362 0.0060413 14.6464 2.048e-05 19.75C-0.00609208 23.9206 1.35624 27.9781 3.87802 31.3C3.87802 31.3 4.40302 31.9912 4.48877 32.091L19.25 49.5L34.0183 32.0823C34.0953 31.9895 34.622 31.3 34.622 31.3L34.6238 31.2948C37.1443 27.9743 38.506 23.9187 38.5 19.75C38.494 14.6464 36.4639 9.75362 32.8552 6.14484C29.2464 2.53607 24.3536 0.506021 19.25 0.5ZM19.25 26.75C17.8656 26.75 16.5122 26.3395 15.361 25.5703C14.2099 24.8011 13.3127 23.7079 12.7829 22.4288C12.253 21.1497 12.1144 19.7422 12.3845 18.3844C12.6546 17.0265 13.3213 15.7792 14.3003 14.8003C15.2792 13.8213 16.5265 13.1546 17.8844 12.8845C19.2423 12.6144 20.6497 12.753 21.9288 13.2828C23.2079 13.8127 24.3011 14.7099 25.0703 15.861C25.8395 17.0122 26.25 18.3655 26.25 19.75C26.2477 21.6058 25.5095 23.3849 24.1972 24.6972C22.885 26.0094 21.1058 26.7477 19.25 26.75Z" fill="#FAFAFE"/>
</svg>
