<svg width="168" height="58" viewBox="0 0 168 58" fill="none" xmlns="http://www.w3.org/2000/svg">
<g filter="url(#filter0_d_276_291)">
<rect x="4" width="160" height="50" rx="10" fill="#D5D5D9" fill-opacity="0.25" shape-rendering="crispEdges"/>
<path d="M46 35.0996C40.477 35.0996 36 30.6226 36 25.0996C36 19.5766 40.477 15.0996 46 15.0996C51.523 15.0996 56 19.5766 56 25.0996C56 30.6226 51.523 35.0996 46 35.0996ZM47.334 25.0996H44.499V22.0996H47.333C47.7308 22.0996 48.1124 22.2576 48.3937 22.5389C48.675 22.8203 48.833 23.2018 48.833 23.5996C48.833 23.9974 48.675 24.379 48.3937 24.6603C48.1124 24.9416 47.7318 25.0996 47.334 25.0996ZM47.333 20.0996H42.499V30.0996H44.499V27.0996H47.333C48.2613 27.0996 49.1515 26.7309 49.8079 26.0745C50.4643 25.4181 50.833 24.5279 50.833 23.5996C50.833 22.6714 50.4643 21.7811 49.8079 21.1247C49.1515 20.4684 48.2613 20.0996 47.333 20.0996Z" fill="#1F1E38"/>
<path d="M75.5934 23.4132C75.5914 24.0639 75.4402 24.6607 75.1399 25.2038C74.8396 25.7362 74.3796 26.1668 73.76 26.4956C73.1403 26.8244 72.3718 26.9874 71.4544 26.9845L69.7585 26.9793L69.7461 31.0113L67.0101 31.003L67.0445 19.771L71.4765 19.7846C72.3725 19.7873 73.1293 19.9443 73.7471 20.2555C74.3648 20.5668 74.8275 20.9948 75.1351 21.5398C75.4428 22.0847 75.5956 22.7092 75.5934 23.4132ZM71.2531 24.8079C71.7758 24.8095 72.1655 24.688 72.4222 24.4435C72.679 24.1989 72.808 23.8527 72.8094 23.4047C72.8108 22.9567 72.6838 22.6096 72.4286 22.3635C72.1734 22.1174 71.7844 21.9935 71.2617 21.9919L69.7737 21.9874L69.7651 24.8034L71.2531 24.8079ZM79.7532 23.6019C80.0747 23.1123 80.4759 22.7295 80.9567 22.4536C81.4376 22.1671 81.9714 22.0247 82.5581 22.0265L82.5492 24.9225L81.7972 24.9202C81.1145 24.9181 80.6021 25.0659 80.2598 25.3635C79.9176 25.6504 79.7454 26.1619 79.7431 26.8979L79.7304 31.0419L76.9945 31.0335L77.0218 22.1056L79.7578 22.1139L79.7532 23.6019ZM87.9018 31.1949C87.0271 31.1922 86.2383 31.0032 85.5355 30.6277C84.8433 30.2522 84.2956 29.7172 83.8924 29.0226C83.4998 28.3281 83.305 27.5168 83.3078 26.5888C83.3106 25.6715 83.5158 24.8668 83.9232 24.1747C84.3307 23.472 84.887 22.935 85.5922 22.5638C86.2973 22.1926 87.0872 22.0084 87.9619 22.0111C88.8365 22.0137 89.6253 22.2028 90.3282 22.5783C91.031 22.9538 91.584 23.4942 91.9872 24.1994C92.3904 24.894 92.5906 25.6999 92.5878 26.6172C92.585 27.5346 92.3745 28.3446 91.9564 29.0473C91.5489 29.7394 90.9873 30.271 90.2715 30.6422C89.5663 31.0134 88.7764 31.1976 87.9018 31.1949ZM87.909 28.8269C88.4317 28.8285 88.8749 28.6379 89.2388 28.255C89.6133 27.8721 89.8016 27.3234 89.8038 26.6087C89.806 25.8941 89.6263 25.3442 89.2649 24.9591C88.914 24.574 88.4773 24.3807 87.9546 24.3791C87.4213 24.3774 86.978 24.5681 86.6249 24.951C86.2717 25.3232 86.094 25.872 86.0918 26.5974C86.0896 27.312 86.2586 27.8619 86.5988 28.2469C86.9496 28.632 87.3863 28.8253 87.909 28.8269ZM93.4953 26.604C93.4981 25.6867 93.6713 24.8819 94.0147 24.1896C94.3689 23.4974 94.8452 22.9655 95.4436 22.594C96.0421 22.2225 96.7093 22.0378 97.4453 22.0401C98.032 22.0419 98.565 22.1662 99.0442 22.413C99.5341 22.6598 99.9171 22.9917 100.193 23.4085L100.206 19.2645L102.942 19.2729L102.906 31.1129L100.17 31.1045L100.174 29.8245C99.9162 30.2504 99.5472 30.5906 99.0664 30.8451C98.5963 31.0997 98.0465 31.226 97.4172 31.2241C96.6812 31.2218 96.0151 31.0331 95.4189 30.6579C94.8228 30.2721 94.3498 29.732 93.9999 29.0376C93.6607 28.3325 93.4925 27.5214 93.4953 26.604ZM100.183 26.6405C100.185 25.9578 99.995 25.4186 99.6122 25.0228C99.2401 24.6269 98.782 24.4282 98.238 24.4265C97.694 24.4249 97.2294 24.6208 96.8442 25.0143C96.4697 25.3971 96.2814 25.9299 96.2793 26.6126C96.2772 27.2952 96.4622 27.8398 96.8343 28.2463C97.2171 28.6421 97.6805 28.8409 98.2245 28.8425C98.7685 28.8442 99.2278 28.6483 99.6023 28.2547C99.9875 27.8612 100.181 27.3232 100.183 26.6405ZM113.728 22.218L113.701 31.1459L110.965 31.1375L110.969 29.9215C110.69 30.3154 110.31 30.6342 109.83 30.8781C109.36 31.1113 108.837 31.227 108.261 31.2253C107.578 31.2232 106.976 31.072 106.454 30.7717C105.932 30.4608 105.528 30.0169 105.242 29.44C104.956 28.8631 104.814 28.1854 104.816 27.4067L104.832 22.1907L107.552 22.199L107.537 27.047C107.536 27.6444 107.689 28.1088 107.997 28.4404C108.305 28.7721 108.721 28.9387 109.244 28.9403C109.777 28.9419 110.199 28.7779 110.509 28.4481C110.819 28.1184 110.976 27.6549 110.977 27.0576L110.992 22.2096L113.728 22.218ZM115.136 26.6863C115.139 25.7583 115.328 24.9482 115.703 24.256C116.089 23.5639 116.619 23.0321 117.292 22.6609C117.976 22.2896 118.755 22.1054 119.63 22.108C120.75 22.1115 121.682 22.4076 122.427 22.9966C123.183 23.5856 123.676 24.4138 123.908 25.4811L120.996 25.4722C120.752 24.7888 120.279 24.446 119.575 24.4439C119.073 24.4423 118.673 24.6384 118.373 25.0322C118.073 25.4153 117.922 25.9695 117.92 26.6948C117.918 27.4201 118.065 27.9806 118.363 28.3762C118.66 28.7611 119.06 28.9543 119.561 28.9559C120.265 28.958 120.741 28.6181 120.988 27.9362L123.9 27.9451C123.662 28.9897 123.164 29.8096 122.404 30.4046C121.645 30.9996 120.711 31.2954 119.602 31.292C118.727 31.2893 117.949 31.1003 117.267 30.7248C116.597 30.3494 116.07 29.8145 115.688 29.12C115.317 28.4255 115.133 27.6143 115.136 26.6863ZM130.337 28.8768L130.33 31.1968L128.938 31.1926C127.946 31.1895 127.173 30.9472 126.62 30.4655C126.067 29.9731 125.792 29.1776 125.795 28.0789L125.806 24.527L124.718 24.5236L124.725 22.2516L125.813 22.255L125.82 20.079L128.556 20.0874L128.549 22.2633L130.341 22.2688L130.334 24.5408L128.542 24.5353L128.531 28.1193C128.53 28.386 128.594 28.5782 128.721 28.6959C128.849 28.8136 129.062 28.8729 129.361 28.8739L130.337 28.8768Z" fill="#21213A"/>
</g>
<defs>
<filter id="filter0_d_276_291" x="0" y="0" width="168" height="58" filterUnits="userSpaceOnUse" color-interpolation-filters="sRGB">
<feFlood flood-opacity="0" result="BackgroundImageFix"/>
<feColorMatrix in="SourceAlpha" type="matrix" values="0 0 0 0 0 0 0 0 0 0 0 0 0 0 0 0 0 0 127 0" result="hardAlpha"/>
<feOffset dy="4"/>
<feGaussianBlur stdDeviation="2"/>
<feComposite in2="hardAlpha" operator="out"/>
<feColorMatrix type="matrix" values="0 0 0 0 0 0 0 0 0 0 0 0 0 0 0 0 0 0 0.25 0"/>
<feBlend mode="normal" in2="BackgroundImageFix" result="effect1_dropShadow_276_291"/>
<feBlend mode="normal" in="SourceGraphic" in2="effect1_dropShadow_276_291" result="shape"/>
</filter>
</defs>
</svg>
