<svg width="65" height="65" viewBox="0 0 65 65" fill="none" xmlns="http://www.w3.org/2000/svg">
<mask id="mask0_233_46" style="mask-type:alpha" maskUnits="userSpaceOnUse" x="0" y="0" width="65" height="65">
<rect width="65" height="65" fill="#D9D9D9"/>
</mask>
<g mask="url(#mask0_233_46)">
<path d="M41.4378 45.2295L45.2295 41.4378L35.2087 31.417V18.9587H29.792V33.5837L41.4378 45.2295ZM32.5003 59.5837C28.7538 59.5837 25.233 58.8727 21.9378 57.4508C18.6427 56.029 15.7764 54.0993 13.3389 51.6618C10.9014 49.2243 8.97168 46.358 7.5498 43.0628C6.12793 39.7677 5.41699 36.2469 5.41699 32.5003C5.41699 28.7538 6.12793 25.233 7.5498 21.9378C8.97168 18.6427 10.9014 15.7764 13.3389 13.3389C15.7764 10.9014 18.6427 8.97168 21.9378 7.5498C25.233 6.12793 28.7538 5.41699 32.5003 5.41699C36.2469 5.41699 39.7677 6.12793 43.0628 7.5498C46.358 8.97168 49.2243 10.9014 51.6618 13.3389C54.0993 15.7764 56.029 18.6427 57.4508 21.9378C58.8727 25.233 59.5837 28.7538 59.5837 32.5003C59.5837 36.2469 58.8727 39.7677 57.4508 43.0628C56.029 46.358 54.0993 49.2243 51.6618 51.6618C49.2243 54.0993 46.358 56.029 43.0628 57.4508C39.7677 58.8727 36.2469 59.5837 32.5003 59.5837ZM32.5003 54.167C38.5038 54.167 43.6158 52.0567 47.8363 47.8363C52.0567 43.6158 54.167 38.5038 54.167 32.5003C54.167 26.4969 52.0567 21.3849 47.8363 17.1644C43.6158 12.9439 38.5038 10.8337 32.5003 10.8337C26.4969 10.8337 21.3849 12.9439 17.1644 17.1644C12.9439 21.3849 10.8337 26.4969 10.8337 32.5003C10.8337 38.5038 12.9439 43.6158 17.1644 47.8363C21.3849 52.0567 26.4969 54.167 32.5003 54.167Z" fill="#FFFDFD"/>
</g>
</svg>
