<svg width="21" height="18" viewBox="0 0 21 18" fill="none" xmlns="http://www.w3.org/2000/svg">
<path d="M14.3498 2.55011C13.5898 2.54999 12.8601 2.84824 12.3177 3.38068C11.7753 3.91313 11.4637 4.63721 11.4498 5.39711L11.4218 6.97211C11.4202 7.05668 11.4007 7.13994 11.3646 7.21644C11.3285 7.29294 11.2767 7.36094 11.2124 7.41599C11.1482 7.47105 11.0731 7.5119 10.992 7.53588C10.9109 7.55985 10.8256 7.56641 10.7418 7.55511L9.1798 7.34311C7.1268 7.06311 5.1588 6.11711 3.2698 4.54411C2.6728 7.85411 3.8398 10.1471 6.6528 11.9161L8.3998 13.0141C8.48287 13.0662 8.55191 13.1378 8.60088 13.2228C8.64985 13.3077 8.67726 13.4033 8.68071 13.5013C8.68417 13.5993 8.66356 13.6966 8.62069 13.7848C8.57782 13.873 8.51399 13.9493 8.4348 14.0071L6.8428 15.1701C7.7898 15.2291 8.6888 15.1871 9.4348 15.0391C14.1528 14.0971 17.2898 10.5471 17.2898 4.69111C17.2898 4.21311 16.2768 2.55011 14.3498 2.55011ZM9.4498 5.36011C9.46726 4.39616 9.76869 3.45878 10.3164 2.66534C10.864 1.87189 11.6336 1.25763 12.5287 0.899481C13.4238 0.541329 14.4047 0.455194 15.3485 0.651862C16.2924 0.848529 17.1572 1.31926 17.8348 2.00511C18.5458 2.00011 19.1508 2.18011 20.5028 1.36011C20.1688 3.00011 20.0028 3.71211 19.2898 4.69111C19.2898 12.3331 14.5928 16.0491 9.8258 17.0001C6.5588 17.6521 1.8058 16.5811 0.445801 15.1591C1.1388 15.1051 3.9588 14.8021 5.5888 13.6091C4.2088 12.6991 -1.2792 9.46911 2.3278 0.786115C4.0208 2.76311 5.7378 4.10911 7.4778 4.82311C8.6348 5.29811 8.9198 5.28911 9.4508 5.36111" fill="#FAFAFE"/>
</svg>
