<svg width="21" height="16" viewBox="0 0 21 16" fill="none" xmlns="http://www.w3.org/2000/svg">
<path d="M20.5347 7.93591C20.5347 7.88552 20.5347 7.82827 20.5324 7.76186C20.5301 7.57636 20.5255 7.36797 20.521 7.14583C20.5026 6.5069 20.4706 5.87026 20.4202 5.27026C20.3515 4.44354 20.2507 3.75423 20.1133 3.23667C19.9683 2.69655 19.6841 2.20396 19.2891 1.80811C18.894 1.41227 18.402 1.12704 17.8622 0.980944C17.2141 0.806898 15.9454 0.699265 14.1591 0.632853C13.3095 0.600792 12.4004 0.580181 11.4912 0.56873C11.1729 0.56415 10.8775 0.56186 10.6118 0.55957H9.93853C9.67288 0.56186 9.37746 0.56415 9.05914 0.56873C8.14998 0.580181 7.24082 0.600792 6.3912 0.632853C4.60494 0.701555 3.33395 0.809189 2.68814 0.980944C2.14815 1.12668 1.65594 1.41179 1.26084 1.80769C0.865745 2.20359 0.581641 2.69638 0.436999 3.23667C0.297304 3.75423 0.198831 4.44354 0.130129 5.27026C0.0797471 5.87026 0.047686 6.5069 0.0293654 7.14583C0.0224952 7.36797 0.0202051 7.57636 0.017915 7.76186C0.017915 7.82827 0.015625 7.88552 0.015625 7.93591V8.06415C0.015625 8.11453 0.015625 8.17178 0.017915 8.2382C0.0202051 8.42369 0.0247853 8.63209 0.0293654 8.85423C0.047686 9.49316 0.0797471 10.1298 0.130129 10.7298C0.198831 11.5565 0.299595 12.2458 0.436999 12.7634C0.730129 13.8603 1.5912 14.726 2.68814 15.0191C3.33395 15.1932 4.60494 15.3008 6.3912 15.3672C7.24082 15.3993 8.14998 15.4199 9.05914 15.4313C9.37746 15.4359 9.67288 15.4382 9.93853 15.4405H10.6118C10.8775 15.4382 11.1729 15.4359 11.4912 15.4313C12.4004 15.4199 13.3095 15.3993 14.1591 15.3672C15.9454 15.2985 17.2164 15.1909 17.8622 15.0191C18.9591 14.726 19.8202 13.8626 20.1133 12.7634C20.253 12.2458 20.3515 11.5565 20.4202 10.7298C20.4706 10.1298 20.5026 9.49316 20.521 8.85423C20.5278 8.63209 20.5301 8.42369 20.5324 8.2382C20.5324 8.17178 20.5347 8.11453 20.5347 8.06415V7.93591ZM18.8859 8.05499C18.8859 8.10308 18.8859 8.15575 18.8836 8.21759C18.8813 8.39621 18.8767 8.59316 18.8721 8.80614C18.8561 9.4153 18.824 10.0245 18.7759 10.5901C18.7141 11.3275 18.6271 11.9321 18.5194 12.3374C18.3775 12.8664 17.9607 13.2855 17.4339 13.4252C16.953 13.5535 15.7416 13.6565 14.095 13.7183C13.2614 13.7504 12.3637 13.771 11.4683 13.7825C11.1546 13.7871 10.8637 13.7893 10.6026 13.7893H9.94769L9.08204 13.7825C8.18662 13.771 7.2912 13.7504 6.45532 13.7183C4.80875 13.6542 3.59501 13.5535 3.11639 13.4252C2.58967 13.2832 2.17288 12.8664 2.03089 12.3374C1.92326 11.9321 1.83624 11.3275 1.7744 10.5901C1.72631 10.0245 1.69654 9.4153 1.67822 8.80614C1.67135 8.59316 1.66906 8.39392 1.66677 8.21759C1.66677 8.15575 1.66448 8.10079 1.66448 8.05499V7.94507C1.66448 7.89698 1.66448 7.8443 1.66677 7.78247C1.66906 7.60385 1.67364 7.4069 1.67822 7.19392C1.69425 6.58476 1.72631 5.9756 1.7744 5.40995C1.83624 4.67255 1.92326 4.06797 2.03089 3.66262C2.17288 3.13362 2.58967 2.71453 3.11639 2.57484C3.5973 2.44659 4.80875 2.34354 6.45532 2.28171C7.28891 2.24965 8.18662 2.22904 9.08204 2.21759C9.39578 2.21301 9.68662 2.21072 9.94769 2.21072H10.6026L11.4683 2.21759C12.3637 2.22904 13.2591 2.24965 14.095 2.28171C15.7416 2.34583 16.9553 2.44659 17.4339 2.57484C17.9607 2.71682 18.3775 3.13362 18.5194 3.66262C18.6271 4.06797 18.7141 4.67255 18.7759 5.40995C18.824 5.9756 18.8538 6.58476 18.8721 7.19392C18.879 7.4069 18.8813 7.60614 18.8836 7.78247C18.8836 7.8443 18.8859 7.89927 18.8859 7.94507V8.05499ZM8.237 11.0687L13.55 7.97713L8.237 4.93133V11.0687Z" fill="#FAFAFE"/>
</svg>
